<ttFont>
          <CharString index="0">
            rmoveto
            232 hlineto
            -45 -357 rlineto
            -50.02000427246094 -111 -124.99000549316406 -23.979995727539062 -89 hhcurveto
            -250 -80 262 246.99000549316406 -4.0099945068359375 hvcurveto
            306.00999450683594 -5 143.02000427246094 431.99000549316406 393.99000549316406 hhcurveto
            176 116.99000549316406 -49.99000549316406 -36 47 hvcurveto
            62.02000427246094 179 -38 11 rlineto
            21.009994506835938 -64 -112.99000549316406 35 -184.02000427246094 hhcurveto
            -418 -328.00999450683594 -371 -548 10.020004272460938 hvcurveto
            -310.00999450683594 5 140 -332.97999572753906 354 hhcurveto
            160.02000427246094 140.97999572753906 46.97999572753906 30 101.00999450683594 hvcurveto
            54 16 43.99000549316406 13 39 4 82 635 rcurveline
            -426.99000549316406 60 callgsubr
            -29 callsubr
            rlineto
            return
          </CharString>
          <CharString index="1">
            rmoveto
            -351.00999450683594 -237 -321 -401 -9.990005493164062 hvcurveto
            -228 -6 116 -221.97999572753906 283 hhcurveto
            194 159 122.97999572753906 79.00999450683594 57 hvcurveto
            -55 110.99000549316406 rlineto
            -106.99000549316406 -114 -118 -52 -100 hhcurveto
            -81 callsubr
            141 -89 109 -192 vhcurveto
            84.99000549316406 -267 rmoveto
            -197 -309.97999572753906 -121.02000427246094 -162.02000427246094 224 callgsubr
            20 120 268 204 hhcurveto
            74.02000427246094 53.99000549316406 -28 -90.99000549316406 hvcurveto
            endchar
          </CharString>
          <CharString index="2">
            rmoveto
            -192 hlineto
            -0.9900054931640625 -44 -2 -45 -4 -45 -25 -256 -68 -269 -151 -242 -103.02000427246094 -181.99000549316406 rcurveline
            -40 302 70 callgsubr
            781 rlineto
            -216 hlineto
            108.99000549316406 -781 65 -374.97999572753906 rlineto
            122 hlineto
            -263 -181 -123 -63 -126.99000549316406 hhcurveto
            -70 -33 23 7 -16 hvcurveto
            -56 -162.02000427246094 rlineto
            -11.990005493164062 35.99000549316406 -23 callgsubr
            -15.009994506835938 37.99000549316406 hhcurveto
            286.97999572753906 153 205 67 callsubr
            113.99000549316406 hvcurveto
            69 callsubr
            112 84.99000549316406 -72 callsubr
            74.02000427246094 140 134.99000549316406 255 96.00999450683594 267 19 256 4 47 0 45.02000427246094 -3 41 rrcurveto
            endchar
          </CharString>
          <CharString index="3">
            rmoveto
            -343 6 159.99000549316406 -282.97999572753906 325.02000427246094 167 callsubr
            343 -6 -159.99000549316406 282.00999450683594 -325 87 callsubr
            991 273 rmoveto
            -76 callsubr
            -211 -99 159 353 -6.9900054931640625 hvcurveto
            380 -7 192 361 282.99000549316406 hhcurveto
            211 100 -153 -352.99000549316406 6 hvcurveto
            endchar
          </CharString>
          <CharString index="4">
            rmoveto
            -191 hlineto
            6 -46.02000427246094 -30 -173 -12 -57 callsubr
            -41 -232 -65 -111 -109 -175 -130.99000549316406 -182 rcurveline
            -12 205 -32 callsubr
            781 rlineto
            -214 hlineto
            84 callsubr
            -223 -47 -232 -5 callgsubr
            -178 -103 -164.99000549316406 rlinecurve
            -134 -188 -10.020004272460938 205 -71 781 rlineto
            -217.99000549316406 hlineto
            113.99000549316406 -781 58 -374.97999572753906 175 12 151 187.97999572753906 83 99 -59 callgsubr
            153 65 155 rlinecurve
            32.99000549316406 -232 58 -374.97999572753906 175 12 151 181.97999572753906 173 208 176 326 25 312.02000427246094 rlinecurve
            4 46 2 24.990005493164062 -3 45.02000427246094 rrcurveto
            endchar
          </CharString>
          <CharString index="5">
            rmoveto
            -37 -171 rlineto
            -30 35 128 -28.970001220703125 -72 callsubr
            hhcurveto
            229 165 104.97999572753906 206 168 -118 94 -103 53 callgsubr
            hvcurveto
            -85.02000427246094 70 -67.99000549316406 52 105 vvcurveto
            100 89 41 104 132 74 -60 -69 callgsubr
            11.020004272460938 vhcurveto
            37.99000549316406 183 rlineto
            15 -33 -96.00999450683594 24 -127 hhcurveto
            -203 -177 -108.00999450683594 -204.99000549316406 -162.02000427246094 93 -85 113.00999450683594 -55 callgsubr
            hvcurveto
            100 -10 callsubr
            -56 callgsubr
            -46 -55 callgsubr
            vvcurveto
            -112 -95 -30 -5 callgsubr
            -40 callgsubr
            vhcurveto
            return
          </CharString>
          <CharString index="6">
            195 hlineto
            133 -40 callsubr
            rlineto
            220 hlineto
            12 156.02000427246094 rlineto
            -211 hlineto
            21 151 16.020004272460938 126 67.99000549316406 13 callsubr
            32 78 callgsubr
            24 -18 50 159 rcurveline
            22 -48 -50 54 callgsubr
            -49.99000549316406 hhcurveto
            -245 -141 -179.02000427246094 -268 -36 hvcurveto
            -13.990005493164062 -93.99000549316406 rlineto
            90 callgsubr
            hlineto
            -28 -156.02000427246094 rlineto
            return
          </CharString>
          <CharString index="7">
            rmoveto
            232 71 128 199 -5 244 rrcurveto
            225 -5 -161 129 -304 -118.99000549316406 -75.02000427246094 -16 -115 hhcurveto
            -101.99000549316406 hlineto
            148 callgsubr
            82 652.9799957275391 rlineto
            -54 callgsubr
            131 31 callsubr
            0 hvcurveto
            92 -7 66 -162 53.99000549316406 -176 65 -183 36 -77.99000549316406 28 -44 227 -1.9799957275390625 rcurveline
            -40 53 -51 117.99000549316406 -103.00999450683594 248.02000427246094 -25.990005493164062 81 -62 127 -51.02000427246094 52 rrcurveto
            -196 -72 callsubr
            rmoveto
            -43 -128.99000549316406 0 3 -51.02000427246094 hvcurveto
            -47 callgsubr
            566 rlineto
            6.9900054931640625 40 112 9.009994506835938 57 hhcurveto
            179 94 -75 -134 106 callgsubr
            hvcurveto
            -213 6 -105 -163 -237 hhcurveto
            return
          </CharString>
          <CharString index="8">
            -67 callsubr
            902 hlineto
            13.990005493164062 -51 callgsubr
            -700 -16 72 560.9900054931641 443 -15 12 166 -438 -7 67.00999450683594 526.9900054931641 581 -7.9900054931640625 7 157 rlineto
            -767.0200042724609 hlineto
            endchar
          </CharString>
          <CharString index="9">
            rmoveto
            18 -65 -89.99000549316406 16 -71 155 callgsubr
            98 -171.99000549316406 211.99000549316406 156 125.00999450683594 103.97000122070312 102.00999450683594 74 hvcurveto
            -16 -189.99000549316406 rlineto
            172 hlineto
            156.02000427246094 -29 callgsubr
            -113.00999450683594 -34 rlineto
            -519 -986.0099945068359 rmoveto
            -88 -51 callsubr
            89 215 237 -22 callgsubr
            336 286 56.02000427246094 53.99000549316406 82 callgsubr
            45.02000427246094 hvcurveto
            -86.02000427246094 -604 rlineto
            -106 -65.99000549316406 -124.00999450683594 -142 -141 hhcurveto
            endchar
          </CharString>
          <CharString index="10">
            rmoveto
            -82 -94 callgsubr
            -93 12 -60 -23 callsubr
            153 1218.009994506836 rcurveline
            10 40 87 9.009994506835938 53 hhcurveto
            303.97999572753906 121.02000427246094 -125.00999450683594 -368.99000549316406 6 hvcurveto
            6 -359.02000427246094 -161.02000427246094 -401 -373.99000549316406 -12 rrcurveto
            return
          </CharString>
          <CharString index="11">
            rmoveto
            -417 -1095 -74 -215 -15.009994506835938 216 -116 1094 rlineto
            -189.99000549316406 hlineto
            24 -217 -343 -878 -61 -215 -56 callsubr
            216 -140 1094 183 callsubr
            232 -1539.990005493164 rlineto
            204 hlineto
            330 859.9700012207031 56 173.02000427246094 12.990005493164062 93 callgsubr
            96.00999450683594 -859.9700012207031 rlineto
            202 hlineto
            629 1539.990005493164 rlineto
            -200 hlineto
            endchar
          </CharString>
          <CharString index="12">
            rlineto
            100.99000549316406 hlineto
            56.02000427246094 97 -5 -4 45 hvcurveto
            31 -3 54 -94 callgsubr
            28 -1 470 -12 316.00999450683594 420.99000549316406 -10.020004272460938 529 rrcurveto
            return
          </CharString>
          <CharString index="13">
            rmoveto
            -76 -589.9900054931641 rlineto
            188 hlineto
            76 589.9900054931641 593 940.0099945068359 rlineto
            -212 hlineto
            -412 -692.0200042724609 -14 callsubr
            -75.99000549316406 -32 75.99000549316406 -248 692.0200042724609 rlineto
            -212 hlineto
            373 -940.0099945068359 rlineto
            endchar
          </CharString>
          <CharString index="14">
            71 70 77 2.9900054931640625 hvcurveto
            63 2 -47 53 -77 hhcurveto
            -65 -75 183 callgsubr
            return
          </CharString>
          <CharString index="15">
            80 69 70 78 3 hvcurveto
            62 -88 callsubr
            -48.99000549316406 53 -76 hhcurveto
            170 callsubr
            return
          </CharString>
          <CharString index="16">
            rmoveto
            -184 -56 callsubr
            -51 callgsubr
            122 6 hvcurveto
            229.99000549316406 16.020004272460938 443 131.99000549316406 333 vvcurveto
            hintmask 11101110
            141 -89 109 -192 -103 -93 -28 -49 -80 vhcurveto
            hintmask 11011110
            77 -128 -79.00999450683594 0 -80 155 callgsubr
            67 callgsubr
            -171.99000549316406 212 158.99000549316406 109.02000427246094 138 callgsubr
            134 139 callgsubr
            hvcurveto
            -153 46 118.00999450683594 -118.97999572753906 206.99000549316406 hhcurveto
            194 159 122.97999572753906 79.00999450683594 57 hvcurveto
            -55 110.99000549316406 rlineto
            -106.99000549316406 -113.99000549316406 -118.00999450683594 -52 -100 hhcurveto
            135 callgsubr
            296 rmoveto
            -22 vlineto
            -130 -65 -93 -146 -110 hhcurveto
            -88 -45 89 215 237 -22 callgsubr
            336 286 64 61 -18.990005493164062 -31 57 hvcurveto
            -113.00999450683594 -130.99000549316406 -68 -188 -5 -210 rrcurveto
            hintmask 11101110
            683 455 rmoveto
            -197 -310 -121.02000427246094 -162 224 callgsubr
            -23 callsubr
            120.02000427246094 268 204 hhcurveto
            74 54 -28 -90.99000549316406 hvcurveto
            endchar
          </CharString>
          <CharString index="17">
            rmoveto
            -175 -125.00999450683594 -138 -81.02000427246094 -50 hvcurveto
            19 203.02000427246094 rlineto
            -185 hlineto
            -156.02000427246094 160 callgsubr
            92 672.9900054931641 rlineto
            140 callgsubr
            79.02000427246094 139.97999572753906 99 85.00999450683594 hhcurveto
            37 callgsubr
            29 -4 -10 76 callsubr
            hvcurveto
            43.99000549316406 208 rlineto
            11 -11 -30 2 100 callsubr
            hhcurveto
            return
          </CharString>
          <CharString index="18">
            9.009994506835938 -48 -51 6 -44 -52 callgsubr
            157 -72 callsubr
            105.97999572753906 104 77 hvcurveto
            -16 -193.99000549316406 rlineto
            174 hlineto
            return
          </CharString>
          <CharString index="19">
            2.9900054931640625 return
          </CharString>
          <CharString index="20">
            267 -6 callgsubr
            587.9900054931641 130 548.010009765625 17 callgsubr
            -86 -678.0099945068359 rlineto
            -29 callsubr
            hlineto
            166 callgsubr
            -130 rlineto
            159 hlineto
            -91 -721.9799957275391 -1 callgsubr
            70 559 rcurveline
            381.99000549316406 hlineto
            16.020004272460938 130 rlineto
            -382.00999450683594 hlineto
            67.00999450683594 529 rlineto
            20 callgsubr
          </CharString>
          <CharString index="21">
            rmoveto
            -88 -55 89 215 237 129 336 286 49 callsubr
            171 callsubr
            -16 43.99000549316406 hvcurveto
            -81.97999572753906 -599 rlineto
            -105 -43 callsubr
            -133 -148 -144 hhcurveto
            endchar
          </CharString>
          <CharString index="22">
            268 -80 callsubr
            1253.000015258789 156.99000549316406 hstem
            -48 callsubr
            vstem
            return
          </CharString>
          <CharString index="23">
            -192.99000549316406 -58 callgsubr
            return
          </CharString>
          <CharString index="24">
            -141.99000549316406 -144 -91.00999450683594 -118.99000549316406 -106 hvcurveto
            37 callsubr
            -18 -74 61 -127.02000427246094 hhcurveto
            -149 -150 -101 -129 195 callgsubr
            hvcurveto
            76 callsubr
            214.02000427246094 rlineto
            -185 hlineto
            -155.02000427246094 -1136 -19 callsubr
            98 210 callsubr
            rlineto
            134 97 151 118 103.02000427246094 hhcurveto
            -25 callgsubr
            41 42 callgsubr
            -43 callsubr
            -17 -123.99000549316406 -22 -149 hvcurveto
            -23 -156 -28 -182 -23 -171.99000549316406 rrcurveto
            196 hlineto
            25 169 29 184 22 158 15 -63 callgsubr
            12 91.00999450683594 7 68 rrcurveto
            111 96.00999450683594 127 88 89 -97 callgsubr
            return
          </CharString>
          <CharString index="25">
            80 133 callgsubr
            3 128 callsubr
            -88 callsubr
            -48.99000549316406 53 -76 hhcurveto
            21 callsubr
            -34 callsubr
            return
          </CharString>
          <CharString index="26">
            -34 callgsubr
            230 16.020004272460938 443 131.99000549316406 333 vvcurveto
            return
          </CharString>
          <CharString index="27">
            -95 callgsubr
            151.97999572753906 return
          </CharString>
          <CharString index="28">
            rmoveto
            138 197 104 callsubr
            49 -130 -185.02000427246094 rlineto
            26.009994506835938 -51 69 callgsubr
            13.990005493164062 -71.99000549316406 hhcurveto
            -336.02000427246094 -242 -348 -362.99000549316406 6 hvcurveto
            2 -135 30 -109 56 134 callsubr
            -144 -207.99000549316406 rcurveline
            -39 callsubr
            -48.99000549316406 128 180 callgsubr
            rlineto
            -43 60 76 -23 93 hhcurveto
            336 232 349 363 -6 hvcurveto
            -94 callgsubr
            157.99000549316406 -37 122 -74 79.00999450683594 rrcurveto
            -297 -46 rmoveto
            43.99000549316406 37 -11 -42 callsubr
            29 hvcurveto
            -430 -676 -11 41 -6 49 -1 -55 callsubr
            rlinecurve
            249.02000427246094 -5 115 313 228 hhcurveto
            -121 -878 rmoveto
            -64 -49 22 42 -35 hvcurveto
            443 697 21.009994506835938 -51 10 -66 1 -80 rlinecurve
            -249 5 -104 -315 -228 hhcurveto
            endchar
          </CharString>
          <CharString index="29">
            -67 callsubr
            767 hlineto
            22 -13 callgsubr
            -570 -5 171.99000549316406 1365.009994506836 183 callsubr
            return
          </CharString>
          <CharString index="30">
            -25.990005493164062 80 -50.02000427246094 rlineto
            -59 callgsubr
            -50 callsubr
            return
          </CharString>
          <CharString index="31">
            -398.00999450683594 6.9900054931640625 -191 -349 -284 hhcurveto
            return
          </CharString>
          <CharString index="32">
            -48 52 rlineto
            -723 hlineto
            -22 -156.02000427246094 rlineto
            538.9900054931641 hlineto
            -159.99000549316406 148 callsubr
            57.97999572753906 -58.97999572753906 rlineto
            777.0099945068359 hlineto
            15 156 rlineto
            -597 hlineto
            142.99000549316406 150 return
          </CharString>
          <CharString index="33">
            -412.02000427246094 -303.97999572753906 -406 -530 10 hvcurveto
            return
          </CharString>
          <CharString index="34">
            208 callsubr
            -32.02000427246094 -46 121 callsubr
            162 callgsubr
            hhcurveto
            -11 -56 callsubr
            5 9.009994506835938 -11 hvcurveto
            -52 -111 rlineto
            -18 25.990005493164062 173 callgsubr
            63 hhcurveto
            212.99000549316406 -41 callsubr
            endchar
          </CharString>
          <CharString index="35">
            130.99000549316406 return
          </CharString>
          <CharString index="36">
            89 callgsubr
            -32 -46 121 callsubr
            -177 hhcurveto
            -11 -56 callsubr
            5 9.009994506835938 -11 hvcurveto
            -52 -111 rlineto
            -18 25.990005493164062 173 callgsubr
            178 callsubr
            6 callsubr
            122 callsubr
            hvcurveto
            154 43 callsubr
          </CharString>
          <CharString index="37">
            -15.990005493164062 -20 callsubr
            return
          </CharString>
          <CharString index="38">
            69 -67 callgsubr
            -69 -57 callsubr
            -76 -3 hvcurveto
            return
          </CharString>
          <CharString index="39">
            hintmask 10110000
            864.9900054931641 71 callsubr
            hintmask 10100100
            200 callsubr
            214 callgsubr
            hlineto
            11.979995727539062 73 callgsubr
            32 78 callgsubr
            23.990005493164062 174 callsubr
            -50.02000427246094 hhcurveto
            -245 -140.99000549316406 -179.02000427246094 -268 -36 hvcurveto
            -14 143 callsubr
            return
          </CharString>
          <CharString index="40">
            rmoveto
            -84 callsubr
            return
          </CharString>
          <CharString index="41">
            rmoveto
            7 157 rlineto
            -1331 hlineto
            -14.009994506835938 -100 291 -22 -768.9799957275391 -1408 rlineto
            212.99000549316406 hlineto
            218.99000549316406 415.99000549316406 rlineto
            483 hlineto
            -52 135 callgsubr
            rlineto
            902 hlineto
            14.009994506835938 -51 callgsubr
            -700.0099945068359 -16 72.00999450683594 560.9900054931641 443 -15 11.990005493164062 166 -437.99000549316406 -7 139 callgsubr
            526.9900054931641 581 -7.9900054931640625 rlineto
            -1303.979995727539 -806.0099945068359 rmoveto
            436 826 53 callsubr
            -6 -103 -820 rlineto
            -422.99000549316406 hlineto
            endchar
          </CharString>
          <CharString index="42">
            1140 -75 callgsubr
            return
          </CharString>
          <CharString index="43">
            47 callgsubr
            -42 callsubr
            50 callgsubr
            -14 callgsubr
            -37 vhcurveto
            -3 -57 callgsubr
            return
          </CharString>
          <CharString index="44">
            -98.02000427246094 -134.99000549316406 -16 68 callgsubr
            hhcurveto
            -94 hlineto
            return
          </CharString>
          <CharString index="45">
            vstem
            296 90 callsubr
            rmoveto
            204 callsubr
            208 1637.990005493164 -75 callgsubr
            623.9900054931641 -783 rmoveto
            70 -39 callsubr
            48 86 10 110.02000427246094 rrcurveto
            -186 hlineto
            -43.99000549316406 -120.00999450683594 -60 -82 -77 70 callgsubr
            -86 -94 -98 -72.00999450683594 -95 -53 rrcurveto
            1 hlineto
            -1 -0.9900054931640625 355 -630 rlineto
            227 hlineto
            -363.99000549316406 597 93 callsubr
            43 122 92 163 callsubr
            50 callsubr
            rlinecurve
            return
          </CharString>
          <CharString index="46">
            315 298.99000549316406 -82 87.02000427246094 return
          </CharString>
          <CharString index="47">
            hlineto
            -60 -23 -30 -144 188 callsubr
            69 -69 callgsubr
            hvcurveto
            -2 11 -1 11.020004272460938 return
          </CharString>
          <CharString index="48">
            vstem
            692 846.9900054931641 rmoveto
            615 683 rlineto
            -232 hlineto
            -671.0099945068359 -772.0099945068359 97 772.0099945068359 rlineto
            -198 41 callsubr
            198 hlineto
            62 488.97999572753906 196 218 50 -88 193 callsubr
            -144 72 -136 rlinecurve
            86 -162 79.02000427246094 -150 179 callsubr
            -26.990005493164062 rrcurveto
            238 hlineto
            -69 102.99000549316406 -57 callsubr
            116 -68 121 -92.02000427246094 163 -93.99000549316406 175 -105 169 rrcurveto
            return
          </CharString>
          <CharString index="49">
            -65 -3 53 -55 65 hhcurveto
            80 69 70 78 3 hvcurveto
            62 -88 callsubr
            -48.99000549316406 53 -76 hhcurveto
            -73.02000427246094 22 callsubr
            return
          </CharString>
          <CharString index="50">
            -66.99000549316406 return
          </CharString>
          <CharString index="51">
            -31.990005493164062 return
          </CharString>
          <CharString index="52">
            54.99000549316406 return
          </CharString>
          <CharString index="53">
            -88 callgsubr
            578.9900054931641 hmoveto
            -51 45 callsubr
            -86.02000427246094 -390 -29 -129.99000549316406 -113.99000549316406 90 callgsubr
            -158 -51 35 -88 rcurveline
            201 204 callgsubr
            31.009994506835938 94.99000549316406 114 callsubr
            689.0099945068359 72.00999450683594 671 rrcurveto
            -198 hlineto
            endchar
          </CharString>
          <CharString index="54">
            -52 callsubr
            -0.9900054931640625 -37 callgsubr
            return
          </CharString>
          <CharString index="55">
            2 11 0.9900054931640625 11 11 vvcurveto
            -132 -60 callsubr
            return
          </CharString>
          <CharString index="56">
            -54.99000549316406 return
          </CharString>
          <CharString index="57">
            18 104 -68 callgsubr
            return
          </CharString>
          <CharString index="58">
            201.99000549316406 return
          </CharString>
          <CharString index="59">
            19 callgsubr
            785 -32 callgsubr
            return
          </CharString>
          <CharString index="60">
            142.99000549316406 vstem
            1064 1839.979995727539 rmoveto
            -486.00999450683594 -384 -391 -485.99000549316406 -487 384 -394.02000427246094 486.00999450683594 485.99000549316406 385 394.02000427246094 487 485.99000549316406 -385 391 -485.99000549316406 hvcurveto
            -1629 vmoveto
            -419 -309 338 414 413 309 338 419 419 309 -338 -413 -414 -309 -338 -419 hvcurveto
            return
          </CharString>
          <CharString index="61">
            rmoveto
            -223 -1634 -19 callsubr
            166 callsubr
            1634 -75 callgsubr
            return
          </CharString>
          <CharString index="62">
            1288.990005493164 rmoveto
            -21 callgsubr
            243 -307 rlineto
            176 hlineto
            return
          </CharString>
          <CharString index="63">
            70 -59 callgsubr
            2.9900054931640625 128 callsubr
            3 -49 53 -76 hhcurveto
            -72.99000549316406 return
          </CharString>
          <CharString index="64">
            -67.02000427246094 return
          </CharString>
          <CharString index="65">
            -20.009994506835938 return
          </CharString>
          <CharString index="66">
            158 199 318.99000549316406 43 hvcurveto
            153.99000549316406 1136 -75 callgsubr
            return
          </CharString>
          <CharString index="67">
            983.9799957275391 return
          </CharString>
          <CharString index="68">
            88.99000549316406 return
          </CharString>
          <CharString index="69">
            31 callgsubr
            827.989990234375 156.00999450683594 return
          </CharString>
          <CharString index="70">
            vstem
            302.97999572753906 -3 callsubr
            -99 callgsubr
            return
          </CharString>
          <CharString index="71">
            -18 callsubr
            hstem
            -13 callgsubr
            188 180 194 vstem
            return
          </CharString>
          <CharString index="72">
            155 395.97999572753906 150.99000549316406 return
          </CharString>
          <CharString index="73">
            -67.02000427246094 48 callsubr
            return
          </CharString>
          <CharString index="74">
            876.9900054931641 return
          </CharString>
          <CharString index="75">
            -73.00999450683594 return
          </CharString>
          <CharString index="76">
            105 callsubr
            -3 53 -55 63 hhcurveto
            return
          </CharString>
          <CharString index="77">
            rmoveto
            -745.9799957275391 -58 callgsubr
            210.97999572753906 hlineto
            182 395.97999572753906 rlineto
            594 hlineto
            66 -395.97999572753906 rlineto
            185 callgsubr
            -282.99000549316406 -983.0200042724609 rmoveto
            369.99000549316406 805.0099945068359 13 -116 115 -689.0099945068359 rlineto
            -497.99000549316406 hlineto
            endchar
          </CharString>
          <CharString index="78">
            -158.99000549316406 return
          </CharString>
          <CharString index="79">
            31 -95 callgsubr
            157.97999572753906 1237.990005493164 166 46 callsubr
            vstem
            return
          </CharString>
          <CharString index="80">
            -58 callgsubr
            185 hlineto
            126 1008.9900054931641 return
          </CharString>
          <CharString index="81">
            -8.990005493164062 return
          </CharString>
          <CharString index="82">
            vstem
            188.99000549316406 1250 rmoveto
            -161.02000427246094 100 -127 82 -35 vhcurveto
            122 116 5 41 rlineto
            -63 53 -29 76 -59 callgsubr
            vvcurveto
            159.99000549316406 100.99000549316406 122 61 callsubr
            35 vhcurveto
            38 callgsubr
            22 -75 111 rlineto
            -124 83 callsubr
            -190 -148 -282.99000549316406 vvcurveto
            return
          </CharString>
          <CharString index="83">
            rmoveto
            -157 -130 -102.00999450683594 -99.99000549316406 -77 hvcurveto
            36 192.99000549316406 55 491.00999450683594 rlineto
            -185 hlineto
            -219.02000427246094 -1653.979995727539 return
          </CharString>
          <CharString index="84">
            19.990005493164062 return
          </CharString>
          <CharString index="85">
            80 61 callsubr
            -67 callgsubr
            92 callsubr
            -21 callsubr
            return
          </CharString>
          <CharString index="86">
            -57 callsubr
            48 callsubr
            return
          </CharString>
          <CharString index="87">
            151.97999572753906 -33 callsubr
            143 return
          </CharString>
          <CharString index="88">
            rlineto
            22 callgsubr
            return
          </CharString>
          <CharString index="89">
            -238 -82 callgsubr
            return
          </CharString>
          <CharString index="90">
            -205 -95 callgsubr
            37 callsubr
            875.9799957275391 147 130 callsubr
            vstem
            return
          </CharString>
          <CharString index="91">
            -19 callgsubr
            544.0099945068359 return
          </CharString>
          <CharString index="92">
            -451.00999450683594 return
          </CharString>
          <CharString index="93">
            -37.99000549316406 return
          </CharString>
          <CharString index="94">
            -92 -32 99 callgsubr
            -129.99000549316406 return
          </CharString>
          <CharString index="95">
            9 callgsubr
            102.00999450683594 34 hvcurveto
            83 callgsubr
            -39 callsubr
            rlineto
            -14 callgsubr
            return
          </CharString>
          <CharString index="96">
            -60 -501 159 326.00999450683594 -54 callgsubr
            hstem
            808.9799957275391 191.00999450683594 vstem
            return
          </CharString>
          <CharString index="97">
            -85.00999450683594 return
          </CharString>
          <CharString index="98">
            260.02000427246094 -854.0200042724609 rmoveto
            -53 -1 -80 7 -35 8.009994506835938 86 687 rcurveline
            12 58 53 callsubr
            9 53 hhcurveto
            200 114 callsubr
            -91 -168 -94 callgsubr
            hvcurveto
            -5 -294.02000427246094 -120.02000427246094 165 callsubr
            -281.97999572753906 -3 rrcurveto
            endchar
          </CharString>
          <CharString index="99">
            -101 -6 -9 callgsubr
            rlineto
            3 callsubr
            return
          </CharString>
          <CharString index="100">
            -26 callgsubr
            114.00999450683594 return
          </CharString>
          <CharString index="101">
            -133 -983.9799957275391 rlineto
            return
          </CharString>
          <CharString index="102">
            107.99000549316406 return
          </CharString>
          <CharString index="103">
            hstem
            869.9900054931641 199 vstem
            846.9900054931641 150 callgsubr
            -164 -169 -110 -137.02000427246094 -115 hvcurveto
            40 250 return
          </CharString>
          <CharString index="104">
            1530 return
          </CharString>
          <CharString index="105">
            -48 52 rlineto
            -722.9900054931641 hlineto
            77 callsubr
            -156.02000427246094 rlineto
            539.0099945068359 hlineto
            -160 148 callsubr
            58 -58.97999572753906 rlineto
            776.9900054931641 hlineto
            15.020004272460938 156 rlineto
            -597.0200042724609 hlineto
            143.02000427246094 150 return
          </CharString>
          <CharString index="106">
            77 57.97999572753906 89 12 hvcurveto
            68 9.009994506835938 -34.02000427246094 57.02000427246094 return
          </CharString>
          <CharString index="107">
            -40 callsubr
            156.00999450683594 161 callsubr
            263 -126.989990234375 153 hstemhm
            return
          </CharString>
          <CharString index="108">
            rmoveto
            -87 -686.0200042724609 rlineto
            -653 hlineto
            87 686.0200042724609 rlineto
            -198 41 callsubr
            198 hlineto
            87.99000549316406 693.9900054931641 rlineto
            653 hlineto
            -88 -693.9900054931641 rlineto
            198 58 callsubr
            -198 hlineto
            endchar
          </CharString>
          <CharString index="109">
            1264.990005493164 rmoveto
            85 70 12 callgsubr
            16 callsubr
            rlinecurve
            return
          </CharString>
          <CharString index="110">
            47 callgsubr
            -42 callsubr
            -36.99000549316406 -48 -37 vhcurveto
            -2.9900054931640625 -77 callsubr
            -32 82 return
          </CharString>
          <CharString index="111">
            12 callsubr
            138 callsubr
            28 callgsubr
            return
          </CharString>
          <CharString index="112">
            -40 callsubr
            156.00999450683594 388.00001525878906 153 hstemhm
            67 callsubr
            return
          </CharString>
          <CharString index="113">
            hhcurveto
            212.99000549316406 158 199 318.99000549316406 return
          </CharString>
          <CharString index="114">
            56 callsubr
            844.9799957275391 156.00999450683594 return
          </CharString>
          <CharString index="115">
            -95 callgsubr
            142.99000549316406 -33 callsubr
            152 return
          </CharString>
          <CharString index="116">
            -434.99000549316406 -42 callgsubr
            return
          </CharString>
          <CharString index="117">
            108.99000549316406 49 callgsubr
            return
          </CharString>
          <CharString index="118">
            47 callgsubr
            -20 0 callgsubr
            78 -50 callsubr
            -32 82 return
          </CharString>
          <CharString index="119">
            33 callsubr
            56 -91 return
          </CharString>
          <CharString index="120">
            110 110 1 rlinecurve
            68 1 return
          </CharString>
          <CharString index="121">
            1547.979995727539 rmoveto
            128 callgsubr
            92 callgsubr
            -149 24 callgsubr
            149 rlineto
            return
          </CharString>
          <CharString index="122">
            36 callsubr
            252 159.99000549316406 221 219 171.99000549316406 -78.99000549316406 123 -198 return
          </CharString>
          <CharString index="123">
            64 -112.00999450683594 209 -188 83 -35 return
          </CharString>
          <CharString index="124">
            113 callsubr
            24 callsubr
            83 -71 -22 callgsubr
            13 callgsubr
            return
          </CharString>
          <CharString index="125">
            -93.99000549316406 rlineto
            -132 hlineto
            -28 -156.02000427246094 rlineto
            return
          </CharString>
          <CharString index="126">
            73 callsubr
            27 callgsubr
            return
          </CharString>
          <CharString index="127">
            160 652.9799957275391 31 callgsubr
            585.0200042724609 152 hstem
            return
          </CharString>
          <CharString index="128">
            -32 callsubr
            -69 return
          </CharString>
          <CharString index="129">
            -69 -21 callsubr
            return
          </CharString>
          <CharString index="130">
            159 callsubr
            132 93 75 54 hvcurveto
            return
          </CharString>
          <CharString index="131">
            -152 137 -307 -401 return
          </CharString>
          <CharString index="132">
            1092.990005493164 204.97999572753906 return
          </CharString>
          <CharString index="133">
            rmoveto
            -681 -58 callgsubr
            159 hlineto
            681 -3 callsubr
            rlineto
            -159 hlineto
            return
          </CharString>
          <CharString index="134">
            111 rlinecurve
            -124 57 callsubr
            rlineto
            return
          </CharString>
          <CharString index="135">
            198 116 163 154.99000549316406 return
          </CharString>
          <CharString index="136">
            119 callsubr
            120 81 -63 callgsubr
            34.02000427246094 hvcurveto
            -10 callsubr
            89 rlineto
            -48 -14 callsubr
            -32 226 callgsubr
            return
          </CharString>
          <CharString index="137">
            6 -25 100 -40 rlineto
            72.00999450683594 109 46 175 -72 callsubr
            vvcurveto
            97.00999450683594 return
          </CharString>
          <CharString index="138">
            -1.9900054931640625 return
          </CharString>
          <CharString index="139">
            156 692.9799957275391 158 hstem
            124 callgsubr
            854.9900054931641 vstem
            235.99000549316406 850.9799957275391 rmoveto
            -18 -158 rlineto
            837 hlineto
            18 158 rlineto
            -837 hlineto
            endchar
          </CharString>
          <CharString index="140">
            -55 callgsubr
            -138.02000427246094 vvcurveto
            -63 return
          </CharString>
          <CharString index="141">
            rmoveto
            243.02000427246094 -307 189 callgsubr
            63 callgsubr
            return
          </CharString>
          <CharString index="142">
            40 42 callgsubr
            -43 callsubr
            -17 -123.99000549316406 -22 -149 hvcurveto
            -23 -156 return
          </CharString>
          <CharString index="143">
            182.99000549316406 return
          </CharString>
          <CharString index="144">
            148.99000549316406 return
          </CharString>
          <CharString index="145">
            1424 -6 callgsubr
            -133.989990234375 163.97999572753906 1205 161 -129.989990234375 146 hstemhm
            25 callsubr
            return
          </CharString>
          <CharString index="146">
            rmoveto
            170 callsubr
            -65 -3 53 -55 65 hhcurveto
            80 69 70 78 3 hvcurveto
            62 -88 callsubr
            -48.99000549316406 53 -76 hhcurveto
            return
          </CharString>
          <CharString index="147">
            rmoveto
            18 callgsubr
            return
          </CharString>
          <CharString index="148">
            hlineto
            -84 callsubr
            return
          </CharString>
          <CharString index="149">
            20.990005493164062 return
          </CharString>
          <CharString index="150">
            1136 -75 callgsubr
            endchar
          </CharString>
          <CharString index="151">
            50 callsubr
            13 callgsubr
            return
          </CharString>
          <CharString index="152">
            -435.02000427246094 -51 -618.9900054931641 return
          </CharString>
          <CharString index="153">
            hstem
            106.99000549316406 -49 callsubr
            return
          </CharString>
          <CharString index="154">
            hstem
            19 callgsubr
            return
          </CharString>
          <CharString index="155">
            -76 -94 callgsubr
            hvcurveto
            return
          </CharString>
          <CharString index="156">
            55.99000549316406 return
          </CharString>
          <CharString index="157">
            119.00999450683594 return
          </CharString>
          <CharString index="158">
            82.99000549316406 return
          </CharString>
          <CharString index="159">
            129.99000549316406 return
          </CharString>
          <CharString index="160">
            89.99000549316406 return
          </CharString>
          <CharString index="161">
            193.99000549316406 return
          </CharString>
          <CharString index="162">
            364 257 244 393.00999450683594 -7 hvcurveto
            52 callgsubr
            162 callsubr
            -164 124 -289 -109 -88 -16 -98.02000427246094 hhcurveto
            return
          </CharString>
          <CharString index="163">
            -369 -66 callgsubr
            return
          </CharString>
          <CharString index="164">
            128 -276.00999450683594 -342 return
          </CharString>
          <CharString index="165">
            hlineto
            193 -3 callsubr
            rlineto
            return
          </CharString>
          <CharString index="166">
            -39 callgsubr
            hvcurveto
            return
          </CharString>
          <CharString index="167">
            315 308 -82 87 return
          </CharString>
          <CharString index="168">
            69.02000427246094 return
          </CharString>
          <CharString index="169">
            -78 callsubr
            endchar
          </CharString>
          <CharString index="170">
            18 -65 77 callgsubr
            16 -71 hhcurveto
            return
          </CharString>
          <CharString index="171">
            1326 rmoveto
            94 -54 94 54 139 179 -55 callsubr
            120 rlinecurve
            -145 117 -237 135 callgsubr
            rlineto
            425 hmoveto
            95 -54 return
          </CharString>
          <CharString index="172">
            hstemhm
            -5 callsubr
            1519.1000061035156 -192.10000610351562 188 hintmask 11000000
            return
          </CharString>
          <CharString index="173">
            -307.02000427246094 -401 83 -71 50 callsubr
            46 221 221 36 return
          </CharString>
          <CharString index="174">
            141.99000549316406 return
          </CharString>
          <CharString index="175">
            271.99000549316406 return
          </CharString>
          <CharString index="176">
            90.00999450683594 return
          </CharString>
          <CharString index="177">
            25 -14 147 877.9900054931641 190 callgsubr
            53 callsubr
            202.99000549316406 544.0099945068359 204.97999572753906 vstem
            return
          </CharString>
          <CharString index="178">
            -40 callsubr
            rmoveto
            -6 callsubr
            return
          </CharString>
          <CharString index="179">
            hhcurveto
            79 callgsubr
            return
          </CharString>
          <CharString index="180">
            117 callsubr
            -69 callgsubr
            hvcurveto
            -2 11 -1 11 return
          </CharString>
          <CharString index="181">
            51 callsubr
            203 callsubr
            return
          </CharString>
          <CharString index="182">
            99 rlineto
            -39.02000427246094 return
          </CharString>
          <CharString index="183">
            20.009994506835938 return
          </CharString>
          <CharString index="184">
            -22.020004272460938 return
          </CharString>
          <CharString index="185">
            397 286 141 362.99000549316406 -6 hvcurveto
            -3 172.02000427246094 -130 -22 callgsubr
            -163 21.020004272460938 rrcurveto
            return
          </CharString>
          <CharString index="186">
            1827.979995727539 rmoveto
            211 161 callgsubr
            -190 344 rlineto
            -178 hlineto
            -327 -344 216 callgsubr
            243 rlineto
            return
          </CharString>
          <CharString index="187">
            -10 callsubr
            -81 -64 -83 -11 hvcurveto
            -78 -10 59 -46.97999572753906 return
          </CharString>
          <CharString index="188">
            vhcurveto
            -51 75 callsubr
            return
          </CharString>
          <CharString index="189">
            -65 -94 callgsubr
            return
          </CharString>
          <CharString index="190">
            -59.99000549316406 return
          </CharString>
          <CharString index="191">
            31.990005493164062 return
          </CharString>
          <CharString index="192">
            rmoveto
            -20 callgsubr
            -63 callsubr
            return
          </CharString>
          <CharString index="193">
            vstem
            403.99000549316406 1781.990005493164 rmoveto
            -129 -592 rlineto
            138.02000427246094 hlineto
            196 592 rlineto
            -205 hlineto
            return
          </CharString>
          <CharString index="194">
            hhcurveto
            -74 callsubr
            return
          </CharString>
          <CharString index="195">
            -94 callgsubr
            53 -55 return
          </CharString>
          <CharString index="196">
            -578.9900054931641 -756 return
          </CharString>
          <CharString index="197">
            1637.990005493164 return
          </CharString>
          <CharString index="198">
            15.009994506835938 return
          </CharString>
          <CharString index="199">
            -69.02000427246094 return
          </CharString>
          <CharString index="200">
            84.00999450683594 return
          </CharString>
          <CharString index="201">
            -256 -185.99000549316406 1965.990005493164 hstem
            353.99000549316406 172.99000549316406 vstem
            354 1780 rmoveto
            return
          </CharString>
          <CharString index="202">
            -47 338.97999572753906 156.99000549316406 352.02000427246094 221 callsubr
            -15 callgsubr
            903 vstem
            return
          </CharString>
          <CharString index="203">
            1800.990005493164 rmoveto
            87 84 callgsubr
            return
          </CharString>
          <CharString index="204">
            hstem
            125.99000549316406 1761.990005493164 vstem
            return
          </CharString>
          <CharString index="205">
            40 -39 callgsubr
            return
          </CharString>
          <CharString index="206">
            37 171 209.99000549316406 47 105 rlinecurve
            -145.02000427246094 118 -246.99000549316406 135 callgsubr
            rlineto
            return
          </CharString>
          <CharString index="207">
            -19.990005493164062 return
          </CharString>
          <CharString index="208">
            194.99000549316406 return
          </CharString>
          <CharString index="209">
            119.99000549316406 return
          </CharString>
          <CharString index="210">
            -3.0200042724609375 return
          </CharString>
          <CharString index="211">
            -88.99000549316406 return
          </CharString>
          <CharString index="212">
            1815 rmoveto
            -64 return
          </CharString>
          <CharString index="213">
            -70 callsubr
            hstem
            -49 callgsubr
            return
          </CharString>
          <CharString index="214">
            59 callgsubr
            163 callsubr
            68 -190 374 -12 callgsubr
            -374 return
          </CharString>
          <CharString index="215">
            210.99000549316406 184 callsubr
            -326.97999572753906 -374 return
          </CharString>
          <CharString index="216">
            231 callgsubr
            70 77 3 hvcurveto
            63 2 -47 -70 callgsubr
            return
          </CharString>
          <CharString index="217">
            -239 -174 -213 -212 -176 95.00999450683594 -133.97999572753906 36 callsubr
            252 return
          </CharString>
          <CharString index="218">
            -275.99000549316406 220 callgsubr
            return
          </CharString>
          <CharString index="219">
            -132 0 167.49000549316406 hstem
            return
          </CharString>
          <CharString index="220">
            1595.990005493164 rmoveto
            return
          </CharString>
          <CharString index="221">
            90.99000549316406 return
          </CharString>
          <CharString index="222">
            -114.00999450683594 return
          </CharString>
          <CharString index="223">
            1547.979995727539 rmoveto
            -4 -149 24 callgsubr
            149 rlineto
            230 callsubr
            hlineto
            return
          </CharString>
          <CharString index="224">
            100 callgsubr
            -126 -25 104 61 callsubr
            return
          </CharString>
          <CharString index="225">
            581 535.9799957275391 rmoveto
            -27.020004272460938 -240.99000549316406 rlineto
            179.02000427246094 hlineto
            return
          </CharString>
          <CharString index="226">
            -26 callgsubr
            113.99000549316406 return
          </CharString>
          <CharString index="227">
            22.020004272460938 return
          </CharString>
          <CharString index="228">
            -206.99000549316406 return
          </CharString>
          <CharString index="229">
            42.99000549316406 return
          </CharString>
          <CharString index="230">
            49.99000549316406 return
          </CharString>
          <CharString index="231">
            123.99000549316406 return
          </CharString>
          <CharString index="232">
            -39 callsubr
            109.02000427246094 47 112.99000549316406 hhcurveto
            104 69 callsubr
            -37 return
          </CharString>
          <CharString index="233">
            238 callsubr
            -104.02000427246094 -129.99000549316406 -83 -86 -43 hvcurveto
            return
          </CharString>
          <CharString index="234">
            597.0200042724609 782.0099945068359 return
          </CharString>
          <CharString index="235">
            hvcurveto
            -56 callgsubr
            return
          </CharString>
          <CharString index="236">
            -130.99000549316406 -45 -79.02000427246094 115 callsubr
            hvcurveto
            46 -111.97999572753906 return
          </CharString>
          <CharString index="237">
            hstem
            84.99000549316406 199 return
          </CharString>
          <CharString index="238">
            -65 96.00999450683594 36 return
          </CharString>
          <CharString index="239">
            0 1999.990005493164 hstem
            return
          </CharString>
          <CharString index="240">
            59.99000549316406 return
          </CharString>
          <CharString index="241">
            -78.00999450683594 return
          </CharString>
          <CharString index="242">
            -42.99000549316406 return
          </CharString>
          <CharString index="243">
            -70.99000549316406 return
          </CharString>
          <CharString index="244">
            138.99000549316406 return
          </CharString>
          <CharString index="245">
            136.99000549316406 return
          </CharString>
          <CharString index="246">
            -149.02000427246094 return
          </CharString>
          <CharString index="247">
            -90.00999450683594 return
          </CharString>
          <CharString index="248">
            202 callsubr
            -83 -86 135 callsubr
            hvcurveto
            return
          </CharString>
          <CharString index="249">
            130 -14 141 595.9799957275391 140 545.0200042724609 138 callgsubr
            return
          </CharString>
          <CharString index="250">
            18 callsubr
            hintmask 10110000
            139 hlineto
            return
          </CharString>
          <CharString index="251">
            -75.02000427246094 183 callgsubr
            return
          </CharString>
          <CharString index="252">
            300 693.9799957275391 164 callsubr
            hstem
            110 1241.979995727539 vstem
            return
          </CharString>
          <CharString index="253">
            46 callgsubr
            22 return
          </CharString>
          <CharString index="254">
            782.9900054931641 hintmask 00000000
            hintmask 01100000
            return
          </CharString>
          <CharString index="255">
            -169 89 callsubr
            return
          </CharString>
          <CharString index="256">
            1507.979995727539 rmoveto
            return
          </CharString>
          <CharString index="257">
            272.02000427246094 return
          </CharString>
          <CharString index="258">
            207.99000549316406 return
          </CharString>
          <CharString index="259">
            96.99000549316406 return
          </CharString>
          <CharString index="260">
            167.02000427246094 -108.00999450683594 98 -168 -161 -186 -90 -185 return
          </CharString>
          <CharString index="261">
            1591.990005493164 rmoveto
            34 callgsubr
            60 callsubr
            return
          </CharString>
          <CharString index="262">
            rmoveto
            -63 callsubr
            return
          </CharString>
          <CharString index="263">
            -15 callsubr
            116 callgsubr
            -427 -313 -259.99000549316406 return
          </CharString>
          <CharString index="264">
            -36 -78.99000549316406 vvcurveto
            -153 -171.99000549316406 -63 -141 -28 vhcurveto
            return
          </CharString>
          <CharString index="265">
            0.9900054931640625 11 11 vvcurveto
            -132 hlineto
            return
          </CharString>
          <CharString index="266">
            11 55 101 callgsubr
            return
          </CharString>
          <CharString index="267">
            110 1231.990005493164 return
          </CharString>
          <CharString index="268">
            251.99000549316406 return
          </CharString>
          <CharString index="269">
            -3.9900054931640625 return
          </CharString>
          <CharString index="270">
            93.99000549316406 return
          </CharString>
          <CharString index="271">
            149.99000549316406 return
          </CharString>
          <CharString index="272">
            -165.99000549316406 return
          </CharString>
          <CharString index="273">
            222.99000549316406 return
          </CharString>
          <CharString index="274">
            hhcurveto
            424 291 415.97999572753906 521 59 callsubr
            return
          </CharString>
          <CharString index="275">
            926.9799957275391 813.9900054931641 hstem
            188.99000549316406 217 return
          </CharString>
          <CharString index="276">
            -189.99000549316406 134.97999572753906 1655.990005493164 134 hstem
            return
          </CharString>
          <CharString index="277">
            -73.00999450683594 22 callsubr
            return
          </CharString>
          <CharString index="278">
            54 -26 callsubr
            return
          </CharString>
          <CharString index="279">
            -111 169 -132 return
          </CharString>
          <CharString index="280">
            rlineto
            176 hlineto
            return
          </CharString>
          <CharString index="281">
            -18 50 159 rcurveline
            22 -48 -49.99000549316406 54 callgsubr
            return
          </CharString>
          <CharString index="282">
            84 159 callgsubr
            hstem
            227 callsubr
            vstem
            return
          </CharString>
          <CharString index="283">
            -62 -77 -83 -66 54 -45.97999572753906 return
          </CharString>
          <CharString index="284">
            65.99000549316406 return
          </CharString>
          <CharString index="285">
            63.02000427246094 return
          </CharString>
          <CharString index="286">
            18.990005493164062 return
          </CharString>
          <CharString index="287">
            230.99000549316406 return
          </CharString>
          <CharString index="288">
            141 53 118 104 4 147 rrcurveto
            118 4 -115 98 return
          </CharString>
          <CharString index="289">
            693.9799957275391 221 callsubr
            124 callgsubr
            return
          </CharString>
          <CharString index="290">
            rlineto
            -198 hlineto
            return
          </CharString>
          <CharString index="291">
            -264.00999450683594 94 68 -190 374 rlineto
            -178 hlineto
            return
          </CharString>
          <CharString index="292">
            71 70 77 -30 callgsubr
            63 2 -47 53 -77 hhcurveto
            return
          </CharString>
          <CharString index="293">
            rmoveto
            -65 88 callsubr
            65 hhcurveto
            80 69 70 78 return
          </CharString>
          <CharString index="294">
            70 78 -30 callgsubr
            62 return
          </CharString>
          <CharString index="295">
            -147 hhcurveto
            -126 -25 104 return
          </CharString>
          <CharString index="296">
            -43 callgsubr
            rrcurveto
            return
          </CharString>
          <CharString index="297">
            -25 callgsubr
            hhcurveto
            return
          </CharString>
          <CharString index="298">
            90 callsubr
            rlineto
            return
          </CharString>
          <CharString index="299">
            -307 -401 rlineto
            return
          </CharString>
          <CharString index="300">
            76.99000549316406 return
          </CharString>
          <CharString index="301">
            -190.02000427246094 return
          </CharString>
          <CharString index="302">
            124.99000549316406 return
          </CharString>
          <CharString index="303">
            -20.990005493164062 return
          </CharString>
          <CharString index="304">
            323.99000549316406 return
          </CharString>
          <CharString index="305">
            -222.99000549316406 return
          </CharString>
          <CharString index="306">
            280.97999572753906 return
          </CharString>
          <CharString index="307">
            101 callsubr
            hlineto
            133 -40 callsubr
            rlineto
            return
          </CharString>
          <CharString index="308">
            225 hlineto
            141 7 -25.990005493164062 -164 rlineto
            return
          </CharString>
          <CharString index="309">
            -92 -56 callsubr
            99 callgsubr
            -130 return
          </CharString>
          <CharString index="310">
            -71 44 callsubr
            return
          </CharString>
          <CharString index="311">
            -208.02000427246094 -1637.990005493164 rlineto
            195 hlineto
            return
          </CharString>
          <CharString index="312">
            hintmask 00000000
            hintmask 11000000
            return
          </CharString>
          <CharString index="313">
            53 callsubr
            60 -59 -81 return
          </CharString>
          <CharString index="314">
            1728.979995727539 149 hstemhm
            return
          </CharString>
          <CharString index="315">
            rmoveto
            89 callgsubr
            return
          </CharString>
          <CharString index="316">
            215 callgsubr
            263 hstemhm
            return
          </CharString>
          <CharString index="317">
            718.9900054931641 return
          </CharString>
          <CharString index="318">
            -107.99000549316406 return
          </CharString>
          <CharString index="319">
            1626.990005493164 return
          </CharString>
          <CharString index="320">
            -235.99000549316406 return
          </CharString>
          <CharString index="321">
            -38.02000427246094 return
          </CharString>
          <CharString index="322">
            -66.00999450683594 return
          </CharString>
          <CharString index="323">
            681 1402.979995727539 127.00999450683594 return
          </CharString>
          <CharString index="324">
            244 -87 -88 34 callgsubr
            return
          </CharString>
          <CharString index="325">
            -43 callsubr
            -76 return
          </CharString>
          <CharString index="326">
            102 callgsubr
            vstem
            return
          </CharString>
          <CharString index="327">
            63 -88 callsubr
            return
          </CharString>
          <CharString index="328">
            156.99000549316406 hstem
            return
          </CharString>
          <CharString index="329">
            1592.990005493164 406.99000549316406 hstem
            return
          </CharString>
          <CharString index="330">
            -42 callgsubr
            283.02000427246094 vvcurveto
            return
          </CharString>
          <CharString index="331">
            hstemhm
            152.99000549316406 202.99000549316406 return
          </CharString>
          <CharString index="332">
            -15 hvcurveto
            -2 11 -0.9900054931640625 11 -1 return
          </CharString>
          <CharString index="333">
            -124.00999450683594 128 return
          </CharString>
          <CharString index="334">
            866.9700012207031 199 return
          </CharString>
          <CharString index="335">
            177.99000549316406 return
          </CharString>
          <CharString index="336">
            -229.99000549316406 return
          </CharString>
          <CharString index="337">
            -510.02000427246094 return
          </CharString>
          <CharString index="338">
            -80.02000427246094 return
          </CharString>
          <CharString index="339">
            -122 -69 -35 vhcurveto
            return
          </CharString>
          <CharString index="340">
            81.97999572753906 return
          </CharString>
          <CharString index="341">
            83.00999450683594 return
          </CharString>
          <CharString index="342">
            -8.009994506835938 return
          </CharString>
          <CharString index="343">
            -355.99000549316406 return
          </CharString>
          <CharString index="344">
            70 77 3 hvcurveto
            63 38 callgsubr
            return
          </CharString>
          <CharString index="345">
            -92 -32 140 192 callgsubr
            hhcurveto
            return
          </CharString>
          <CharString index="346">
            -19.009994506835938 -111 -22 -93 vhcurveto
            return
          </CharString>
          <CharString index="347">
            313 273 return
          </CharString>
        <CharString name=".notdef">
          762 0 218.99000549316406 973.989990234375 223 hstem
          227.97999572753906 229 960.010009765625 227 vstem
          227.97999572753906 1415.990005493164 rmoveto
          -1415.990005493164 1416.009994506836 1415.990005493164 -1416.009994506836 vlineto
          358.00999450683594 -1197 rmoveto
          -128 144 357.99000549316406 342 -358.99000549316406 363.00999450683594 123 195 callsubr
          356.99000549316406 -367.99000549316406 352.00999450683594 366 128 -124 -363.00999450683594 -357.99000549316406 363.00999450683594 -368 -122 -122 -362 368 -347 -368 rlineto
          endchar
        </CharString>
        <CharString name="A">
          -35 callsubr
          hstem
          -76 1251 vstem
          977 hmoveto
          -98 callgsubr
        </CharString>
        <CharString name="AE">
          51 callgsubr
          1687.979995727539 1373 -66 callsubr
        </CharString>
        <CharString name="AEacute">
          51 callgsubr
          1385.979995727539 72 callgsubr
          -123.99000549316406 57 callsubr
          -54 callgsubr
          -65 96.02000427246094 130 callgsubr
          302 -499 -66 callsubr
        </CharString>
        <CharString name="Aacute">
          -35 callsubr
          hstem
          -76 1251 vstem
          1148.990005493164 72 callgsubr
          29 callgsubr
          73 157 callgsubr
          -171.99000549316406 -1871.990005493164 rmoveto
          -98 callgsubr
        </CharString>
        <CharString name="Abreve">
          -35 callsubr
          1082.020004272461 190 callgsubr
          504.99000549316406 140 vstem
          803.9799957275391 1629 rmoveto
          28 callsubr
          120 callsubr
          hvcurveto
          38 callgsubr
          11 1 11 11 vvcurveto
          -131.99000549316406 19 callsubr
          -29 callsubr
          51 callsubr
          -173 216 vhcurveto
          173.02000427246094 -1629 rmoveto
          -98 callgsubr
        </CharString>
        <CharString name="Acircumflex">
          -35 callsubr
          hstem
          -76 1251 vstem
          850.9799957275391 79 callsubr
          126.02000427246094 -1827.979995727539 rmoveto
          -98 callgsubr
        </CharString>
        <CharString name="Adieresis">
          -35 callsubr
          1149.009994506836 263 hstemhm
          477.97999572753906 152 callgsubr
          152.00001525878906 -10 callgsubr
          hintmask 11110000
          590.9900054931641 191 callgsubr
          78 231 callgsubr
          237 callsubr
          -46.99000549316406 -70 callgsubr
          -3 hvcurveto
          10 callgsubr
          419 hmoveto
          80 69 70 77 3 hvcurveto
          220 callsubr
          -14 callgsubr
          53 -76 hhcurveto
          -64 -82 -85 callgsubr
          -66 52 -53 63 hvcurveto
          -33 -1695.990005493164 rmoveto
          -98 callgsubr
        </CharString>
        <CharString name="Agrave">
          -35 callsubr
          hstem
          -76 1251 vstem
          817.9900054931641 1593 rmoveto
          -54 callgsubr
          65 111 callsubr
          62 172 callsubr
          96.00999450683594 -36 rlinecurve
          159 -1593 rmoveto
          -98 callgsubr
        </CharString>
        <CharString name="Amacron">
          -35 callsubr
          1182.009994506836 149 hstemhm
          523.9799957275391 141 callgsubr
          hintmask 00000000
          hintmask 11100000
          1035.979995727539 1878 rmoveto
          -510 hlineto
          66 callgsubr
          -58.99000549316406 -1878 rmoveto
          -98 callgsubr
        </CharString>
        <CharString name="Aogonek">
          155 9 callsubr
          682.9799957275391 150.99000549316406 hstem
          734.9799957275391 194 vstem
          991.9900054931641 -287 rmoveto
          -23 -40 23 callsubr
          39.02000427246094 hlineto
          -286 -3 callsubr
          rlineto
          -219.02000427246094 hlineto
          -745.9799957275391 -58 callgsubr
          210.97999572753906 hlineto
          182 395.97999572753906 rlineto
          594 hlineto
          66 -395.97999572753906 rlineto
          -88 callsubr
          hlineto
          -77 -47 -168 4 callsubr
          -56.02000427246094 208 callgsubr
          -605 833.9799957275391 rmoveto
          369.99000549316406 805.0099945068359 13 -116 115 -689.0099945068359 rlineto
          -497.99000549316406 hlineto
          endchar
        </CharString>
        <CharString name="Aring">
          -35 callsubr
          1345.009994506836 108.00999450683594 hstem
          493.99000549316406 137 callsubr
          342.00999450683594 142 vstem
          977 hmoveto
          198 hlineto
          -277.00999450683594 1480.990005493164 rlineto
          125.00999450683594 30 94 53 callgsubr
          140 vvcurveto
          153 callsubr
          -119 -55 callsubr
          -81.99000549316406 100 -36 vhcurveto
          -724.9900054931641 -1487.990005493164 rlineto
          210.97999572753906 hlineto
          182 395.97999572753906 rlineto
          594 hlineto
          66 -395.97999572753906 rlineto
          -152 1891.979995727539 rmoveto
          206 callsubr
          -146.99000549316406 -87 -32 -102.00999450683594 -87.99000549316406 -65 66 80 136 -63 callgsubr
          36.99000549316406 69 callsubr
          hvcurveto
          -438 -1345 rmoveto
          369.99000549316406 805.0099945068359 13 -116 115 -689.0099945068359 rlineto
          -497.99000549316406 hlineto
          endchar
        </CharString>
        <CharString name="Atilde">
          -35 callsubr
          1121.020004272461 -73 callgsubr
          -76 1288.990005493164 hintmask 11010000
          653.9900054931641 1807.990005493164 rmoveto
          119 callsubr
          120.02000427246094 81 -63 callgsubr
          34 hvcurveto
          83 callgsubr
          89 rlineto
          -48 -38 -56 callsubr
          114 callgsubr
          -74.02000427246094 hhcurveto
          hintmask 10110000
          141 callsubr
          87 84 callgsubr
          rlineto
          hintmask 11010000
          37.99000549316406 134 callgsubr
          34 52 65 -1 rrcurveto
          16 -278 -30 callsubr
        </CharString>
        <CharString name="B">
          142 callsubr
          hstemhm
          922.9900054931641 211 -190.010009765625 198 hintmask 11110000
          837.9799957275391 802 rmoveto
          hintmask 11101000
          1 callgsubr
          hintmask 11110000
          78 callsubr
          hintmask 11101000
          -8 callgsubr
          hintmask 11110000
          -7 callgsubr
        </CharString>
        <CharString name="C">
          -28 callsubr
          816.9900054931641 1545.990005493164 -100 callgsubr
        </CharString>
        <CharString name="CR">
          -1110 endchar
        </CharString>
        <CharString name="Cacute">
          -28 callsubr
          761 -35 callgsubr
          62 111 rlinecurve
          226 callsubr
          -275.97999572753906 -342 rlineto
          49 callsubr
          -112 -100 callgsubr
        </CharString>
        <CharString name="Ccaron">
          -28 callsubr
          472.99000549316406 222 callgsubr
          131 callgsubr
          -84 callgsubr
          rlineto
          344 -379 -100 callgsubr
        </CharString>
        <CharString name="Ccedilla">
          31 -462 165 285 153.99000549316406 1237.989990234375 166 46 callsubr
          251.99998474121094 171 vstem
          809.9799957275391 1379.979995727539 rmoveto
          163 -23 callgsubr
          -14 callgsubr
          -17.020004272460938 30.990005493164062 hvcurveto
          70 164 -9 callgsubr
          18 rlineto
          24 92 callsubr
          -71.99000549316406 25 -130 hhcurveto
          -406 -314 -371 -548 10 hvcurveto
          5 -296 113.00999450683594 -317.00999450683594 336 -27.990005493164062 rrcurveto
          1 -34 -1 -40 -29 vvcurveto
          137 callgsubr
          -77 -31.009994506835938 228 callgsubr
          5 9.009994506835938 -17 vhcurveto
          -25 -151 rlineto
          166 callgsubr
          22 -47 callgsubr
          -12 179 callgsubr
          hhcurveto
          148 130 -47 callgsubr
          226 61 235 callsubr
          51 -14 39 hvcurveto
          197.02000427246094 13.990005493164062 163 callsubr
          56 34.02000427246094 25.990005493164062 -30 166 rcurveline
          -32 -39 -140.99000549316406 -76 -179.02000427246094 hhcurveto
          -228.99000549316406 -103 224 281.99000549316406 -5.0200042724609375 hvcurveto
          286 -5 118.00999450683594 445.99000549316406 387.99000549316406 hhcurveto
          endchar
        </CharString>
        <CharString name="Ccircumflex">
          -28 callsubr
          472.99000549316406 -53 callgsubr
          94 68 -190 344 rlineto
          -178 hlineto
          -327 -344 rlineto
          344 -116 -100 callgsubr
        </CharString>
        <CharString name="Cdotaccent">
          31 -95 callgsubr
          157.97999572753906 1237.990005493164 166 150 263 46 callsubr
          388.00999450683594 52 callgsubr
          vstem
          697 -31 callsubr
          -59 callgsubr
          -93 callsubr
          102 callsubr
          -269 -100 callgsubr
        </CharString>
        <CharString name="D">
          267 -6 callgsubr
          1266.000015258789 17 callgsubr
          -192.99000549316406 -1530 rlineto
          100.99000549316406 hlineto
          56.02000427246094 97 -5 -4 45 hvcurveto
          31 -3 54 -2.9900054931640625 28 -1 470 -12 316.00999450683594 420.99000549316406 -10.020004272460938 529 rrcurveto
          -733.9900054931641 -788 -97 callsubr
          endchar
        </CharString>
        <CharString name="Dcaron">
          267 -6 callgsubr
          1266.000015258789 146 hstem
          25 callsubr
          vstem
          -33 callsubr
          212 callsubr
          rmoveto
          -84 callgsubr
          131 callgsubr
          420.99000549316406 -705 85 callsubr
          -192.99000549316406 -1530 rlineto
          100.99000549316406 hlineto
          56.02000427246094 97 -5 -4 45 hvcurveto
          31 -3 54 -2.9900054931640625 28 -1 470 -12 316.00999450683594 420.99000549316406 -10.020004272460938 529 rrcurveto
          -733.9900054931641 -788 -97 callsubr
          endchar
        </CharString>
        <CharString name="Dcroat">
          -87 callsubr
        </CharString>
        <CharString name="E">
          28 0 -71 callgsubr
          hstem
          110 960 vstem
          302.97999572753906 -3 callsubr
          -99 callsubr
        </CharString>
        <CharString name="Eacute">
          28 0 -71 callgsubr
          hstem
          110 960 vstem
          657 1658 rmoveto
          16 callgsubr
          168.97999572753906 132 62.02000427246094 111 callgsubr
          -354.02000427246094 -128 -99 callsubr
        </CharString>
        <CharString name="Ebreve">
          28 0 -71 callgsubr
          99 190 callgsubr
          412.99000549316406 139.97999572753906 vstem
          413 1960.979995727539 223 callgsubr
          74 callgsubr
          1 11 11 vvcurveto
          -132 117 callsubr
          -15.009994506835938 hvcurveto
          31 callsubr
          238 callgsubr
          -135 hlineto
          -0.9900054931640625 -6 0 -7 -6 vvcurveto
          -110.02000427246094 -430.99000549316406 -99 callsubr
        </CharString>
        <CharString name="Ecaron">
          28 0 -71 callgsubr
          hstem
          110 992.9900054931641 vstem
          368.99000549316406 222 callgsubr
          131 callgsubr
          -84 callgsubr
          rlineto
          -66 -395 -99 callsubr
        </CharString>
        <CharString name="Ecircumflex">
          28 0 -71 callgsubr
          hstem
          110 960 vstem
          368.99000549316406 -53 callgsubr
          94 68 194 callsubr
          344 -12 callgsubr
          -344 rlineto
          -66 -132 -99 callsubr
        </CharString>
        <CharString name="Edieresis">
          28 0 -71 callgsubr
          165.989990234375 263 hstemhm
          385.97999572753906 152 callgsubr
          151.98001098632812 230 callgsubr
          hintmask 00000000
          hintmask 11111100
          385.99000549316406 1815 rmoveto
          10 callgsubr
          -45 callgsubr
          -3 hvcurveto
          235 callgsubr
          hmoveto
          -66 52.02000427246094 119 callgsubr
          -48 53 -76 hhcurveto
          -64 -82 -85 callgsubr
          hvcurveto
          -500 -285 -99 callsubr
        </CharString>
        <CharString name="Edotaccent">
          28 0 -71 callgsubr
          165.989990234375 263 hstemhm
          592.9900054931641 52 callgsubr
          hintmask 00000000
          hintmask 11111000
          593 -31 callsubr
          78 -93 callsubr
          -290.02000427246094 -285 -99 callsubr
        </CharString>
        <CharString name="Egrave">
          28 0 -71 callgsubr
          hstem
          110 960 vstem
          398.99000549316406 72 callgsubr
          -56 callgsubr
          -111 169 109 callgsubr
          -96.00999450683594 -342 -99 callsubr
        </CharString>
        <CharString name="Emacron">
          28 0 -71 callgsubr
          198.989990234375 149 hstemhm
          431.97999572753906 141 callgsubr
          hintmask 00000000
          hintmask 11111000
          433.99000549316406 1878 rmoveto
          66 callgsubr
          128 callgsubr
          -131 -348 -99 callsubr
        </CharString>
        <CharString name="Eng">
          406 -315 1845 hstem
          160 callsubr
          vstem
          1153.990005493164 -3 callsubr
          rmoveto
          -123 -1020 -18.990005493164062 -249 -63.02000427246094 206.99000549316406 -440 1062.009994506836 rlineto
          -206 hlineto
          -192.99000549316406 -27 callsubr
          43 callgsubr
          298 103 callgsubr
          -232 445.00999450683594 -1051.020004272461 -46 211 callsubr
          -102.00999450683594 -99.99000549316406 -133 -43 rlinecurve
          35 -88 201 34 161 87 83 194 rlinecurve
          106 callgsubr
          58 callsubr
          -188 hlineto
          endchar
        </CharString>
        <CharString name="Eogonek">
          28 9 callsubr
          287 -71 callgsubr
          hstem
          560.9799957275391 194 vstem
          1062.990005493164 1373 rmoveto
          7 157 rlineto
          -767.0200042724609 41 callsubr
          696 hlineto
          -77 -47 -168 12 callsubr
          137 28 callgsubr
          -56 -37.99000549316406 147 callgsubr
          131.99000549316406 93 75 54 hvcurveto
          50 hlineto
          13.990005493164062 -51 callgsubr
          -700 -16 72 560.9900054931641 443 -15 12 166 -438 -7 67.00999450683594 526.9900054931641 581 -7.9900054931640625 rlineto
          endchar
        </CharString>
        <CharString name="Eth">
          -87 callsubr
        </CharString>
        <CharString name="Euro">
          279 -95 callgsubr
          146.97999572753906 422.99000549316406 141 199.010009765625 140 363.989990234375 148 hstem
          227.97999572753906 208.00999450683594 vstem
          930 1545.990005493164 rmoveto
          -299.00999450683594 -241.99000549316406 -194 -318 -106 hvcurveto
          -193 hlineto
          -20 -140 173 callsubr
          -12 -63 -7 215 callsubr
          31 callsubr
          -70 rrcurveto
          -180 hlineto
          -20 -141 rlineto
          203 hlineto
          -286.97999572753906 23 135 -282.97999572753906 307 hhcurveto
          206 171.99000549316406 46.97999572753906 80 71 hvcurveto
          -56 136 rlineto
          114 callgsubr
          -89 -55 callgsubr
          -54 -179.02000427246094 hhcurveto
          -192.99000549316406 -81 168 255 -12 hvcurveto
          527 hlineto
          19 141 rlineto
          -546 hlineto
          -88 callsubr
          71 6 66.00999450683594 10 -56 callgsubr
          rrcurveto
          553 hlineto
          19.009994506835938 140 rlineto
          -542 hlineto
          229.99000549316406 66 52 callsubr
          134 195 hhcurveto
          169 -5 callsubr
          50 callgsubr
          -28.020004272460938 43 callgsubr
          hvcurveto
          64 159 rlineto
          23 -72.00999450683594 -86 31 -156 hhcurveto
          endchar
        </CharString>
        <CharString name="F">
          170 callgsubr
          hstem
          110 982.9900054931641 vstem
          302.97999572753906 -3 callsubr
          -4 callgsubr
        </CharString>
        <CharString name="G">
          -17 callgsubr
          781.9900054931641 570 -107 callsubr
          endchar
        </CharString>
        <CharString name="Gbreve">
          -80 callgsubr
          83.010009765625 190 callgsubr
          10 callsubr
          238.99998474121094 140 vstem
          847.9900054931641 1629 rmoveto
          28 callsubr
          22 hvcurveto
          2 11 0.9799957275390625 11 11 vvcurveto
          -131.99000549316406 45 callgsubr
          -146.99000549316406 hhcurveto
          -126.00999450683594 163 callgsubr
          104 61 callsubr
          78 callgsubr
          hvcurveto
          -2 11 -0.9900054931640625 11 -1 145 callgsubr
          -173 216 vhcurveto
          -66 -1059 -107 callsubr
          endchar
        </CharString>
        <CharString name="Gcaron">
          -17 callgsubr
          924 212 callsubr
          rmoveto
          315 298.99000549316406 -82 144 callgsubr
          131 callgsubr
          -142 -1057 -107 callsubr
          endchar
        </CharString>
        <CharString name="Gcircumflex">
          -17 callgsubr
          895 1827.979995727539 rmoveto
          210.99000549316406 161 callgsubr
          -189.99000549316406 344 -12 callgsubr
          -344 193 callsubr
          -77 313.02000427246094 243 rlineto
          -113.00999450683594 -1257.990005493164 -107 callsubr
          endchar
        </CharString>
        <CharString name="Gcommaaccent">
          -80 callgsubr
          hstem
          10 callsubr
          277.00999450683594 219 callsubr
          781.9900054931641 570 -107 callsubr
          -112 -640 rmoveto
          137 callgsubr
          -8 callsubr
          -76 22 vhcurveto
          endchar
        </CharString>
        <CharString name="Gdotaccent">
          -80 callgsubr
          150 263 hstem
          10 callsubr
          418.99998474121094 152 callgsubr
          vstem
          841.9900054931641 191 callgsubr
          -45 callgsubr
          -3 hvcurveto
          10 callgsubr
          -60 -1125.990005493164 -107 callsubr
          endchar
        </CharString>
        <CharString name="Gtilde">
          -80 callgsubr
          122.010009765625 -73 callgsubr
          10 callsubr
          hintmask 11110100
          698 1807.990005493164 rmoveto
          -2 110.99000549316406 17.020004272460938 -138 163 hhcurveto
          114 102 callsubr
          81 -63 callgsubr
          34 hvcurveto
          -85 89 rlineto
          -48 -14 callsubr
          -32 226 callgsubr
          hintmask 11101100
          -13 callsubr
          -83 -86 -43 hvcurveto
          87 84 callgsubr
          rlineto
          hintmask 11110100
          38 134 callgsubr
          34 52 65 -1 rrcurveto
          144 -422.00999450683594 rmoveto
          176 116.99000549316406 -49.99000549316406 -36 47 hvcurveto
          62.02000427246094 179 -38 11 rlineto
          21.009994506835938 -64 -112.99000549316406 35 -184.02000427246094 hhcurveto
          -418 -328.00999450683594 -371 -548 10.020004272460938 hvcurveto
          -310.00999450683594 5 140 -332.97999572753906 354 hhcurveto
          160.02000427246094 140.97999572753906 46.97999572753906 30 101.00999450683594 hvcurveto
          54 16 43.99000549316406 13 39 4 82 635 rcurveline
          -426.99000549316406 60 callgsubr
          -29 callsubr
          rlineto
          232 hlineto
          -45 -357 rlineto
          -50.02000427246094 -111 -124.99000549316406 -23.979995727539062 -89 hhcurveto
          -250 -80 262 246.99000549316406 -4.0099945068359375 hvcurveto
          306.00999450683594 -5 143.02000427246094 431.99000549316406 393.99000549316406 hhcurveto
          endchar
        </CharString>
        <CharString name="H">
          145 callsubr
          1153.990005493164 -3 callsubr
          1 callsubr
        </CharString>
        <CharString name="Hbar">
          300 591.9900054931641 164 callsubr
          256.00999450683594 164 callsubr
          hstem
          51.99000549316406 1462.979995727539 vstem
          1514.990005493164 1147.990005493164 rmoveto
          -211 hlineto
          48 382.00999450683594 183 callsubr
          -48 -382.00999450683594 rlineto
          -652.9900054931641 hlineto
          47.99000549316406 382.00999450683594 183 callsubr
          -14 callgsubr
          -382.00999450683594 rlineto
          -189 hlineto
          -13.990005493164062 -150 rlineto
          184 hlineto
          -126 -997.9900054931641 rlineto
          198 hlineto
          75 591.9900054931641 rlineto
          652.9900054931641 hlineto
          -75 -591.9900054931641 rlineto
          198 hlineto
          126.02000427246094 997.9900054931641 rlineto
          216 hlineto
          13.990005493164062 150 rlineto
          -460 -406 rmoveto
          -653 hlineto
          32 256 rlineto
          653 hlineto
          -32 -256 rlineto
          endchar
        </CharString>
        <CharString name="Hcircumflex">
          145 callsubr
          890.9799957275391 79 callsubr
          263 -297.97999572753906 1 callsubr
        </CharString>
        <CharString name="I">
          -530 132 callgsubr
          127 390.97999572753906 vstem
          320 -3 callsubr
          -88 callgsubr
          endchar
        </CharString>
        <CharString name="I.uc">
          -530 64 callgsubr
          197 callsubr
          52 callgsubr
          205 callsubr
          197 callsubr
          -31 callsubr
          -59 callgsubr
          -93 callsubr
          162 callsubr
          -285 -88 callgsubr
          endchar
        </CharString>
        <CharString name="IJ">
          52 -315 1845 hstem
          127 969.9900054931641 vstem
          320 -3 callsubr
          -54 callsubr
        </CharString>
        <CharString name="IJ_acutecomb">
          52 -315 2315 hstem
          127 1240 39 callgsubr
          578.9900054931641 -2 40 callsubr
          62 27 callsubr
          -646.9799957275391 -126 -54 callsubr
        </CharString>
        <CharString name="Iacute">
          -530 132 callsubr
          127 660.9900054931641 39 callgsubr
          -67.99000549316406 -128 -88 callgsubr
          endchar
        </CharString>
        <CharString name="Ibreve">
          -530 1628.990005493164 190 callgsubr
          143.99000549316406 140 vstem
          143.99000549316406 1960.979995727539 223 callgsubr
          -173 216 28 callsubr
          120 callsubr
          vhcurveto
          38 callgsubr
          11 1 11 11 vvcurveto
          -132 19 callsubr
          176 -430.99000549316406 -88 callgsubr
          endchar
        </CharString>
        <CharString name="Icircumflex">
          -530 0 2005.990005493164 hstem
          99.97999572753906 695 vstem
          99.97999572753906 -53 callgsubr
          94 68 -190 344 rlineto
          -178 hlineto
          -327 -344 rlineto
          214 callgsubr
          -132 -88 callgsubr
          endchar
        </CharString>
        <CharString name="Idieresis">
          -530 64 callgsubr
          116.97999572753906 152 callgsubr
          152.00001525878906 -10 callgsubr
          hintmask 11100000
          116.97999572753906 1815 rmoveto
          10 callgsubr
          96 callgsubr
          417.02000427246094 hmoveto
          -66 52 119 callgsubr
          -14 callgsubr
          53 -76 hhcurveto
          -64 -82 -85 callgsubr
          hvcurveto
          -214 -285 -88 callgsubr
          endchar
        </CharString>
        <CharString name="Idotaccent">
          -530 64 callgsubr
          197 callsubr
          52 callgsubr
          205 callsubr
          197 callsubr
          -31 callsubr
          -59 callgsubr
          -93 callsubr
          162 callsubr
          -285 -88 callgsubr
          endchar
        </CharString>
        <CharString name="Igrave">
          -530 132 callsubr
          127 402.97999572753906 vstem
          52 callsubr
          72 callgsubr
          62.02000427246094 -111 168.97999572753906 109 callgsubr
          190.02000427246094 -342 -88 callgsubr
          endchar
        </CharString>
        <CharString name="Imacron">
          -530 207 callsubr
          162.97999572753906 141 callgsubr
          205 callsubr
          -51 callgsubr
          1878 rmoveto
          66 callgsubr
          128 callgsubr
          155.02000427246094 -348 -88 callgsubr
          endchar
        </CharString>
        <CharString name="Iogonek">
          -530 9 callsubr
          hstem
          -118 54 callsubr
          vstem
          282.99000549316406 hmoveto
          42 hlineto
          192.99000549316406 -3 callsubr
          rlineto
          -197.97999572753906 hlineto
          -193 -58 callgsubr
          -77 -47 -168 33 callsubr
          56.02000427246094 -91 138 callsubr
          26 callgsubr
          endchar
        </CharString>
        <CharString name="Itilde">
          -530 1667.990005493164 -73 callgsubr
          69 147 callsubr
          69 96 callsubr
          37.99000549316406 134 callgsubr
          34 52 65 -1 rlinecurve
          hintmask 10100000
          -36 callgsubr
          -38 -56 callsubr
          114 callgsubr
          -74.02000427246094 hhcurveto
          hintmask 01100000
          141 callsubr
          251 -271 -88 callgsubr
          endchar
        </CharString>
        <CharString name="J">
          -528 -315 1845 hstem
          -170 687 vstem
          319 -3 callsubr
          -31 callgsubr
        </CharString>
        <CharString name="Jcircumflex">
          -528 -315 2321 hstem
          -170 958.9900054931641 vstem
          93.97999572753906 -53 callgsubr
          94 68 -190 344 rlineto
          -178 hlineto
          -327 -344 rlineto
          225.02000427246094 -132 -31 callgsubr
        </CharString>
        <CharString name="K">
          135 132 callgsubr
          110 1196.990005493164 -59 callsubr
          endchar
        </CharString>
        <CharString name="Kcommaaccent">
          135 -557.9900054931641 2088 hstem
          544.9900054931641 190.99000549316406 -59 callsubr
          -64 -914.9799957275391 rmoveto
          -149 -101.00999450683594 -6 -54 rlineto
          40 -26 callsubr
          32 184 callgsubr
          -42 callsubr
          -37 -14 callgsubr
          50 callgsubr
          vhcurveto
          -3 121 callgsubr
          80 -49.99000549316406 rlineto
          -59 callgsubr
          85 callgsubr
          endchar
        </CharString>
        <CharString name="L">
          112 callsubr
          110 788.9900054931641 vstem
          302.97999572753906 -3 callsubr
          62 callsubr
        </CharString>
        <CharString name="Lacute">
          112 callsubr
          110 788.9900054931641 vstem
          384.97999572753906 1659.990005493164 rmoveto
          36 callgsubr
          131.99000549316406 62.02000427246094 27 callsubr
          -82 -129.99000549316406 62 callsubr
        </CharString>
        <CharString name="Lcaron">
          112 callsubr
          821.9799957275391 183 vstem
          780.9799957275391 1070 rmoveto
          30 callsubr
          -4.0099945068359375 76 -23.990005493164062 57 vhcurveto
          35 callgsubr
          239 callsubr
          -478 460 62 callsubr
        </CharString>
        <CharString name="Lcommaaccent">
          112 callsubr
          443.97999572753906 219 callsubr
          302.97999572753906 -3 callsubr
          -78 callsubr
          61 callsubr
          -1753 rmoveto
          40 -26 callsubr
          84 callsubr
          184 callgsubr
          100 callsubr
          -37 -48 50 callgsubr
          vhcurveto
          -3 121 callgsubr
          123 callgsubr
          -49.99000549316406 rlineto
          67 callgsubr
          85 callgsubr
          -149 -101.00999450683594 -6 -54 rlineto
          endchar
        </CharString>
        <CharString name="Ldot">
          -14 0 167.49000549316406 583.489990234375 150 callsubr
          hstem
          762.9799957275391 276 vstem
          302.97999572753906 -3 callsubr
          -78 callsubr
          617 -507 rmoveto
          -5 callgsubr
          69 callgsubr
          -77 -83 -65.99000549316406 54 -46.02000427246094 65 95 62 60 100 59 -34 53 -10 callsubr
          hvcurveto
          endchar
        </CharString>
        <CharString name="Lslash">
          112 callsubr
          -50.99000549316406 949.9799957275391 vstem
          328.99000549316406 -51 callgsubr
          rmoveto
          -56 callgsubr
          489 418 176 -35 127 -365 -158 92 731.0099945068359 183 callsubr
          -104 -821 -249.97999572753906 -108.00999450683594 36 -118.00999450683594 195.97000122070312 234 callsubr
          136 callsubr
          -565.9900054931641 rlineto
          767 hlineto
          22 -13 callgsubr
          -570 -5 rlineto
          endchar
        </CharString>
        <CharString name="M">
          216 callsubr
          hstem
          1409.979995727539 194 vstem
          427.99000549316406 -3 callsubr
          -50 callgsubr
        </CharString>
        <CharString name="N">
          290 132 callgsubr
          160 callsubr
          -37 callsubr
          endchar
        </CharString>
        <CharString name="NULL">
          -1110 endchar
        </CharString>
        <CharString name="Nacute">
          290 132 callsubr
          160 callsubr
          vstem
          809.9799957275391 1658 rmoveto
          198 callgsubr
          57 callgsubr
          132 62 27 callsubr
          -507 -128 -99 callgsubr
          endchar
        </CharString>
        <CharString name="Ncaron">
          290 0 2012.990005493164 hstem
          160 callsubr
          vstem
          521.9900054931641 222 callgsubr
          131 callgsubr
          -84 callgsubr
          rlineto
          -219 -395 -99 callgsubr
          endchar
        </CharString>
        <CharString name="Ncommaaccent">
          290 -560 2090 hstem
          567.9900054931641 190.99000549316406 -37 callsubr
          193 -1754.990005493164 rmoveto
          -64 callsubr
          -149 -101 -6 -9 callgsubr
          rlineto
          endchar
        </CharString>
        <CharString name="Ntilde">
          290 1667.990005493164 -73 callgsubr
          160 callsubr
          hintmask 00000000
          hintmask 01100000
          490.99000549316406 129 callgsubr
          hintmask 10100000
          29 callsubr
          hintmask 01100000
          126 callsubr
          -188 -271 -99 callgsubr
          endchar
        </CharString>
        <CharString name="O">
          -85 callsubr
          -5 callsubr
          610 -104 callsubr
        </CharString>
        <CharString name="OE">
          996 -80 callsubr
          -135.989990234375 -71 callgsubr
          -141 156.99000549316406 209 callgsubr
          hintmask 01110100
          2027.990005493164 1373 rmoveto
          7 157 rlineto
          -767 hlineto
          -37 -291 rlineto
          hintmask 10101100
          36 callsubr
          -67.00999450683594 -134.99000549316406 124 -215 87 callsubr
          -343 6 159.99000549316406 -282.97999572753906 325.02000427246094 hhcurveto
          214 175 105.97999572753906 172 102 callsubr
          hvcurveto
          hintmask 01110100
          -32.99000549316406 -261.97999572753906 rlineto
          902 hlineto
          13.990005493164062 -51 callgsubr
          -699.9900054931641 -16 178 callgsubr
          560.9900054931641 443 -15 12 166 -438 -7 67.00999450683594 526.9900054931641 581 -7.9900054931640625 rlineto
          hintmask 10101100
          -1397 -1237.009994506836 rmoveto
          -211 -99 159 353 -6.9900054931640625 hvcurveto
          380 -7 192 361 282.99000549316406 hhcurveto
          211 100 -153 -352.99000549316406 6 hvcurveto
          -76 callsubr
          endchar
        </CharString>
        <CharString name="Oacute">
          -85 callsubr
          781.9900054931641 21 callgsubr
          62 111 rlinecurve
          -123.99000549316406 57 callsubr
          rlineto
          -674 -1048 -104 callsubr
        </CharString>
        <CharString name="Obreve">
          268 -80 callsubr
          1253.000015258789 156.99000549316406 234 callsubr
          146.97999572753906 47 callsubr
          223.989990234375 140 421.010009765625 61 callgsubr
          537.9900054931641 8 callgsubr
          0.9900054931640625 11 11 vvcurveto
          -132 73 callsubr
          -0.9799957275390625 -37 callgsubr
          -430 -1350.990005493164 -104 callsubr
        </CharString>
        <CharString name="Ocircumflex">
          -85 callsubr
          494 1661.990005493164 rmoveto
          193 callsubr
          -77 313.02000427246094 243 210.99000549316406 161 callgsubr
          -190 344 rlineto
          -178 hlineto
          -326.97999572753906 -344 rlineto
          -386 -1052 -104 callsubr
        </CharString>
        <CharString name="Odieresis">
          268 -80 callsubr
          1253.000015258789 156.99000549316406 149.99998474121094 263 209 callgsubr
          197 52 callgsubr
          151.99998474121094 -64 callgsubr
          -95.97999572753906 -32 callgsubr
          hintmask 11111010
          511 -31 callsubr
          -59 callgsubr
          -93 callsubr
          hintmask 11111100
          235 callgsubr
          hmoveto
          -66 52 -53 63 80 61 callsubr
          70 77 -88 callsubr
          vhcurveto
          63 3 -48 53 -76 hhcurveto
          -64 -82 -85 callgsubr
          hvcurveto
          -820 -1205 rmoveto
          -343 6 159.99000549316406 -282.97999572753906 325.02000427246094 hhcurveto
          hintmask 11111010
          424 291 415.97999572753906 521 59 callsubr
          343 -6 -159.99000549316406 282.00999450683594 -325 hhcurveto
          hintmask 11111100
          -74 callsubr
          hintmask 11111010
          991 273 rmoveto
          -76 callsubr
          -211 -99 159 353 -6.9900054931640625 hvcurveto
          380 -7 192 361 282.99000549316406 hhcurveto
          211 100 -153 -352.99000549316406 6 hvcurveto
          endchar
        </CharString>
        <CharString name="Ograve">
          -85 callsubr
          523.9799957275391 72 callgsubr
          62 172 callsubr
          -15 callgsubr
          -36 198 callgsubr
          65 rcurveline
          -276.00999450683594 220 callgsubr
          rlineto
          135 callgsubr
          -1262 -104 callsubr
        </CharString>
        <CharString name="Ohungarumlaut">
          -85 callsubr
          548.9900054931641 1624.990005493164 rmoveto
          94 -65 84 37 215.99000549316406 169 51.02000427246094 116 rlinecurve
          -133 118 -312.00999450683594 -375 rlineto
          415 hmoveto
          74 -65 103 38 212 167 58 116 rlinecurve
          -135 119 -312 -375 rlineto
          -856 -1014.9900054931641 -104 callsubr
        </CharString>
        <CharString name="Omacron">
          268 -80 callsubr
          1253.000015258789 156.99000549316406 182.99998474121094 149 209 callgsubr
          242.97999572753906 509.52000427246094 32.5 -32 callgsubr
          hintmask 00000000
          hintmask 11111100
          558.9799957275391 1878 rmoveto
          -4 3 callgsubr
          -510.00999450683594 hlineto
          -450.99000549316406 -1268 rmoveto
          -343 6 159.99000549316406 -282.97999572753906 325.02000427246094 hhcurveto
          hintmask 11110100
          424 291 415.97999572753906 521 59 callsubr
          343 -6 -159.99000549316406 282.00999450683594 -325 hhcurveto
          hintmask 11111100
          -74 callsubr
          hintmask 11110100
          991 273 rmoveto
          -76 callsubr
          -211 -99 159 353 -6.9900054931640625 hvcurveto
          380 -7 192 361 282.99000549316406 hhcurveto
          211 100 -153 -352.99000549316406 6 hvcurveto
          endchar
        </CharString>
        <CharString name="Oslash">
          -85 callsubr
          1158.979995727539 1388.990005493164 -87 callgsubr
        </CharString>
        <CharString name="Oslashacute">
          -85 callsubr
          1148.990005493164 72 callgsubr
          29 callgsubr
          73 157 callgsubr
          10 -483 -87 callgsubr
        </CharString>
        <CharString name="Otilde">
          268 -80 callsubr
          1253.000015258789 156.99000549316406 122.00999450683594 -73 callgsubr
          -48 callsubr
          hintmask 11011100
          462.99000549316406 96 callsubr
          37.99000549316406 134 callgsubr
          33 callgsubr
          rlinecurve
          hintmask 11101100
          -36 callgsubr
          214 callsubr
          -56 callsubr
          226 callgsubr
          hintmask 11011100
          -13 callsubr
          -83 -86 -43 hvcurveto
          -355 -1191 -104 callsubr
        </CharString>
        <CharString name="P">
          168 callgsubr
          hstem
          969.9900054931641 49 callgsubr
          vstem
          302.97999572753906 -3 callsubr
          94 callgsubr
          55 callsubr
          -116 hlineto
          -9 callsubr
        </CharString>
        <CharString name="Q">
          268 -359.99000549316406 180 callgsubr
          172.00999450683594 139.97999572753906 1253.000015258789 156.99000549316406 hstem
          -48 callsubr
          vstem
          210 callsubr
          162 callsubr
          rmoveto
          357.99000549316406 69.97999572753906 236 385 -8 470 rrcurveto
          343 -6 -159.99000549316406 282.00999450683594 -325 87 callsubr
          6 -335.02000427246094 153 -277.9700012207031 310.99000549316406 -13 rrcurveto
          -232 -29 168 -112 191 hhcurveto
          112 148 24 34 37 callgsubr
          hvcurveto
          153.99000549316406 vlineto
          100 callsubr
          -58 -92 235 callsubr
          135 callsubr
          hhcurveto
          -141 -156 9.020004272460938 163 -8 hvcurveto
          -405 651.9700012207031 rmoveto
          380 -7 192 361 282.99000549316406 hhcurveto
          211 100 -153 -352.99000549316406 6 hvcurveto
          -76 callsubr
          -211 -99 159 353 -6.9900054931640625 hvcurveto
          endchar
        </CharString>
        <CharString name="R">
          86 callgsubr
          826.9799957275391 677.9900054931641 -100 callsubr
          endchar
        </CharString>
        <CharString name="Racute">
          86 callgsubr
          1110 72 callgsubr
          226 callsubr
          -276 -342 18 callgsubr
          62.02000427246094 111 rlinecurve
          -283.02000427246094 -1194 -100 callsubr
          endchar
        </CharString>
        <CharString name="Rcaron">
          86 callgsubr
          840.9900054931641 212 callsubr
          rmoveto
          -84 callgsubr
          131 callgsubr
          -14.009994506835938 -949 -100 callsubr
          endchar
        </CharString>
        <CharString name="Rcommaaccent">
          20 callsubr
          556.9900054931641 102 callgsubr
          218.99998474121094 214.99000549316406 vstem
          826.9799957275391 677.9900054931641 -100 callsubr
          9.020004272460938 -878.9799957275391 rmoveto
          139 callsubr
          4 callgsubr
          -75.97999572753906 22 vhcurveto
          endchar
        </CharString>
        <CharString name="S">
          -46 callgsubr
          53 callgsubr
          234.99000549316406 -102 callgsubr
          endchar
        </CharString>
        <CharString name="Sacute">
          -46 callgsubr
          631.9900054931641 -35 callgsubr
          62 111 callgsubr
          -548 -1423.009994506836 -102 callgsubr
          endchar
        </CharString>
        <CharString name="Scaron">
          -46 callgsubr
          343.97999572753906 222 callgsubr
          243.02000427246094 -298 189 callgsubr
          -84 callgsubr
          rlineto
          -260 -1690.009994506836 -102 callgsubr
          endchar
        </CharString>
        <CharString name="Scedilla">
          -66 -463.99000549316406 -51 callgsubr
          284.00999450683594 153.99000549316406 1255.990005493164 150.99000549316406 hstemhm
          36 callsubr
          198 -30.010009765625 171 193.010009765625 -32 callgsubr
          hintmask 11101100
          647.9900054931641 1545.990005493164 rmoveto
          hintmask 11110100
          -270.99000549316406 -199 -150 -259.00999450683594 5 hvcurveto
          4 -222 158 -128 153 -100.99000549316406 rrcurveto
          165 -109.02000427246094 52 -92 -112 vvcurveto
          -175 -159 -58.99000549316406 -159 -27 callgsubr
          vhcurveto
          -51 callsubr
          -159.99000549316406 rlineto
          hintmask 11101100
          40 -34.02000427246094 134 -47.97999572753906 -42 callgsubr
          -7.9900054931640625 rrcurveto
          1 -34.02000427246094 -1 -41 -29 vvcurveto
          -149 -77 -31 -81.97999572753906 -31.009994506835938 -23 5.0200042724609375 9 -17 vhcurveto
          211 callgsubr
          -151 rlineto
          -16 22 -47 callgsubr
          -12 53 hhcurveto
          -42 callgsubr
          130 -54 callgsubr
          226 178 callsubr
          -39 callgsubr
          179 callgsubr
          -69 callgsubr
          39.02000427246094 hvcurveto
          250 29.979995727539062 177 142 -4.0099945068359375 233 callgsubr
          -4 -3 callgsubr
          rrcurveto
          hintmask 11110100
          -171 116.02000427246094 -70 69 7 159.99000549316406 rrcurveto
          171 8.009994506835938 152.99000549316406 35 50 callsubr
          hhcurveto
          76 128 -42 callsubr
          -65 63 hvcurveto
          63 151 rlineto
          hintmask 11101100
          37 -51 -106 48 -186 hhcurveto
          endchar
        </CharString>
        <CharString name="Scircumflex">
          -46 callgsubr
          343.97999572753906 -53 callgsubr
          94 68 -190 344 rlineto
          -178 hlineto
          -327 -344 rlineto
          -260 -1427 -102 callgsubr
          endchar
        </CharString>
        <CharString name="Scommaaccent">
          -66 -66 callgsubr
          1255.990005493164 150.99000549316406 hstemhm
          36 callsubr
          198 -35.010009765625 102 callgsubr
          178.02000427246094 -32 callgsubr
          hintmask 11101000
          53 callgsubr
          234.99000549316406 -102 callgsubr
          hintmask 11011000
          190 -459.97999572753906 rmoveto
          134 callgsubr
          -39 callgsubr
          84 callsubr
          184 callgsubr
          -20 50 callgsubr
          -14 callgsubr
          -37 vhcurveto
          103 callsubr
          -57 callgsubr
          -149 -101 -6 -9 callgsubr
          rlineto
          endchar
        </CharString>
        <CharString name="T">
          12 1378.509994506836 201 callgsubr
          555.9900054931641 1384 -61 callgsubr
          endchar
        </CharString>
        <CharString name="Tbar">
          12 721.9799957275391 130 526.5299987792969 201 callgsubr
          1174 1373 rmoveto
          42 callsubr
          157 rlineto
          -1043.990005493164 hlineto
          77 callsubr
          -157 427.00999450683594 11 -67.00999450683594 -532.0099945068359 rlineto
          -269.99000549316406 hlineto
          -16 -130 rlineto
          268.97999572753906 hlineto
          -91 -721.9799957275391 rlineto
          198 hlineto
          114 callsubr
          721.9799957275391 rlineto
          150 callsubr
          hlineto
          16 130 rlineto
          -271.00999450683594 hlineto
          67.00999450683594 532.0099945068359 420 -11 rlineto
          endchar
        </CharString>
        <CharString name="Tcaron">
          12 1378.509994506836 201 callgsubr
          374.99000549316406 222 callgsubr
          131 callgsubr
          -84 callgsubr
          rlineto
          181 -541 -61 callgsubr
          endchar
        </CharString>
        <CharString name="Thorn">
          100 269.97999572753906 31 callgsubr
          722.0099945068359 149 hstem
          937.9799957275391 201 vstem
          1139 907 rmoveto
          52 callgsubr
          92 callgsubr
          -163.99000549316406 125.00999450683594 -289.02000427246094 hhcurveto
          -77.99000549316406 -67.00999450683594 -39 callgsubr
          -5 -57 callsubr
          hvcurveto
          30.990005493164062 247 rlineto
          -198 41 callsubr
          198 hlineto
          35 279.97999572753906 rlineto
          -5 29 58 -5 94.99000549316406 hhcurveto
          364.02000427246094 257 244 393.00999450683594 -7 hvcurveto
          -201.02000427246094 -18 rmoveto
          -5 -294.02000427246094 -120 165 callsubr
          -282.00999450683594 -3 -53 -1 -78.99000549316406 7 -36 8.009994506835938 87 687 rcurveline
          12 58 89 -43 callgsubr
          53 hhcurveto
          199.99000549316406 91.00999450683594 -91 -168 -3 hvcurveto
          endchar
        </CharString>
        <CharString name="U">
          -48 callgsubr
          158.99000549316406 593 -107 callgsubr
        </CharString>
        <CharString name="Uacute">
          -48 callgsubr
          768.9799957275391 21 callgsubr
          62.02000427246094 27 callsubr
          -610 -1065 -107 callgsubr
        </CharString>
        <CharString name="Ubreve">
          253 -11 callgsubr
          1483.990005493164 146.97999572753906 -33 callgsubr
          175.99000549316406 140 vstem
          524.9799957275391 8 callgsubr
          1 11 11 vvcurveto
          90 callgsubr
          45 callgsubr
          -146.99000549316406 hhcurveto
          -126.02000427246094 163 callgsubr
          104 61 callsubr
          -15.009994506835938 hvcurveto
          31 callsubr
          11 -1 11 -1 -37 callgsubr
          -366 -1367.990005493164 -107 callgsubr
        </CharString>
        <CharString name="Ucircumflex">
          -48 callgsubr
          480.99000549316406 -53 callgsubr
          163 callsubr
          68 -190 344 -12 callgsubr
          -344 rlineto
          -322 -1069 -107 callgsubr
        </CharString>
        <CharString name="Udieresis">
          253 -11 callgsubr
          1550.979995727539 263 -33 callgsubr
          149.00001525878906 52 callgsubr
          151.99998474121094 -64 callgsubr
          vstem
          497.99000549316406 -31 callsubr
          -59 callgsubr
          185 callsubr
          -64.97999572753906 144 callsubr
          235 callgsubr
          hmoveto
          -66 52 -53 63 123 callgsubr
          69 70 77 -88 callsubr
          vhcurveto
          63 3 -48 53 -76 hhcurveto
          -64 -82 -85 callgsubr
          hvcurveto
          -756 -1222 -107 callgsubr
        </CharString>
        <CharString name="Ugrave">
          -48 callgsubr
          511 72 callgsubr
          -56 callgsubr
          172 callsubr
          -15 callgsubr
          -36 -47 callgsubr
          65 rcurveline
          -276.00999450683594 342 -123.99000549316406 -128 rlineto
          -352.00999450683594 -1279 -107 callgsubr
        </CharString>
        <CharString name="Uhungarumlaut">
          -48 callgsubr
          535.9799957275391 143 callgsubr
          -312.00999450683594 80 callgsubr
          -792 -1031.990005493164 -107 callgsubr
        </CharString>
        <CharString name="Umacron">
          253 -11 callgsubr
          1583.979995727539 149 -33 callgsubr
          101 callsubr
          141 callgsubr
          vstem
          546 1878 rmoveto
          92 callgsubr
          3 callgsubr
          128 callgsubr
          -387.00999450683594 -1285 -107 callgsubr
        </CharString>
        <CharString name="Uogonek">
          253 9 callsubr
          271.00999450683594 -60 callgsubr
          -33 callgsubr
          111.99000549316406 194 vstem
          1128.979995727539 -3 callsubr
          rmoveto
          -111.99000549316406 -886 rlineto
          -358.00999450683594 -45.02000427246094 -128 -140.99000549316406 -214 hhcurveto
          -175 -101.99000549316406 -15 callgsubr
          195 -4 hvcurveto
          -1 57 5 62 7.9900054931640625 -47 callgsubr
          114.00999450683594 902 rcurveline
          -198 hlineto
          -118 -937 -6 -59 -7.9900054931640625 -54 0.9900054931640625 -52 rlinecurve
          -276.00999450683594 5.0200042724609375 152.99000549316406 -167.97000122070312 298 hhcurveto
          29 28 1 -88 callsubr
          43 callgsubr
          hvcurveto
          -82 -52 -143.02000427246094 -99 -118 vvcurveto
          -63 56.02000427246094 -91 138 callsubr
          28 callgsubr
          -56 208 callgsubr
          -23 -40 11 55 48 99 106.99000549316406 88 88 hvcurveto
          198 178 callgsubr
          123 185.02000427246094 45 348 113.99000549316406 903 rcurveline
          -193 hlineto
          endchar
        </CharString>
        <CharString name="Uring">
          253 -11 callgsubr
          1421.979995727539 106 319 108.00999450683594 -33 callgsubr
          -51 callgsubr
          137 callsubr
          342 142 vstem
          513.9900054931641 1824.990005493164 rmoveto
          -164 105 -94 182 228 callsubr
          158 86 182 167 211 callsubr
          98.02000427246094 81 callgsubr
          vhcurveto
          480.99000549316406 27 rmoveto
          -147 -87 -56 callsubr
          -101.99000549316406 -88 -65 66 80 135.99000549316406 102.02000427246094 37 53 callsubr
          69 callsubr
          133 callsubr
          -59 -81 vhcurveto
          -835.9900054931641 -1258.990005493164 -107 callgsubr
        </CharString>
        <CharString name="Utilde">
          253 -11 callgsubr
          1522.990005493164 -73 callgsubr
          145.97999572753906 203.00999450683594 hintmask 00000000
          hintmask 10110000
          449.99000549316406 129 callgsubr
          hintmask 11010000
          29 callsubr
          hintmask 10110000
          126 callsubr
          hintmask 11010000
          -291 -1208 -107 callgsubr
        </CharString>
        <CharString name="V">
          59 132 callgsubr
          128 1157.979995727539 vstem
          128 -3 callsubr
          rmoveto
          161 callsubr
          -58 callgsubr
          209 hlineto
          697 -3 callsubr
          rlineto
          -209.99000549316406 hlineto
          -476.02000427246094 -1101 -86 -222 -25 222 -163 1101 rlineto
          -197.97999572753906 hlineto
          endchar
        </CharString>
        <CharString name="W">
          663 -9.990005493164062 1539.990005493164 97 callsubr
          1687.979995727539 -3 callsubr
          -96 callsubr
        </CharString>
        <CharString name="Wacute">
          663 -9.990005493164062 2009.979995727539 97 callsubr
          1399.990005493164 72 callgsubr
          29 callgsubr
          16 callgsubr
          169 132 62 111 rlinecurve
          287.99000549316406 -342 -96 callsubr
        </CharString>
        <CharString name="Wcircumflex">
          663 -9.990005493164062 2015.979995727539 97 callsubr
          1101.990005493164 1827.979995727539 rmoveto
          211 161 callgsubr
          194 callsubr
          344 -12 callgsubr
          -344 216 callgsubr
          243 rlineto
          586 -297.97999572753906 -96 callsubr
        </CharString>
        <CharString name="Wdieresis">
          663 64 callgsubr
          728.9799957275391 152 callgsubr
          152.00001525878906 -10 callgsubr
          hintmask 11100000
          841.9900054931641 191 callgsubr
          -45 callgsubr
          -3 hvcurveto
          10 callgsubr
          419 hmoveto
          80 69 70 77 3 hvcurveto
          220 callsubr
          -48 53 -76 hhcurveto
          -64 -81.99000549316406 -85 callgsubr
          -66 52 -53 63 hvcurveto
          426.99000549316406 165 callsubr
          -96 callsubr
        </CharString>
        <CharString name="Wgrave">
          663 -9.990005493164062 2009.979995727539 97 callsubr
          1068.990005493164 1593 rmoveto
          73 65 111 callsubr
          -56 callgsubr
          172 callsubr
          96.00999450683594 -36 rlinecurve
          618.9900054931641 -63 -96 callsubr
        </CharString>
        <CharString name="X">
          47 132 callgsubr
          -59 1299.979995727539 vstem
          499 792.9900054931641 rmoveto
          -558 -792.9900054931641 rlineto
          239.97999572753906 hlineto
          394.02000427246094 619.9900054931641 247.99000549316406 -619.9900054931641 rlineto
          228 hlineto
          -346.99000549316406 752.9900054931641 536.9900054931641 777.0099945068359 rlineto
          -223.99000549316406 hlineto
          -389 -598.0200042724609 -229 598.0200042724609 rlineto
          -218 hlineto
          318.02000427246094 -737.0099945068359 rlineto
          endchar
        </CharString>
        <CharString name="Y">
          -27 132 callgsubr
          197 callgsubr
          1154 vstem
          455.99000549316406 589.9900054931641 -94 callsubr
        </CharString>
        <CharString name="Yacute">
          -27 132 callsubr
          197 callgsubr
          1154 vstem
          639 -35 callgsubr
          62 111 rlinecurve
          226 callsubr
          -275.97999572753906 -342 rlineto
          -183 -1068.009994506836 -94 callsubr
        </CharString>
        <CharString name="Ycircumflex">
          -27 0 2005.990005493164 hstem
          197 callgsubr
          1154 vstem
          350.99000549316406 -53 callgsubr
          94 68 194 callsubr
          344 -12 callgsubr
          -344 rlineto
          105 -1072 -94 callsubr
        </CharString>
        <CharString name="Ydieresis">
          -27 64 callgsubr
          367.97999572753906 152 callgsubr
          152.00001525878906 -10 callgsubr
          hintmask 11100000
          367.97999572753906 1815 rmoveto
          10 callgsubr
          -45 callgsubr
          103 callsubr
          hvcurveto
          417.02000427246094 hmoveto
          -66 52 119 callgsubr
          -48 53 -76 hhcurveto
          -64 -81.97999572753906 -85 callgsubr
          hvcurveto
          -329.00999450683594 -1225.009994506836 -94 callsubr
        </CharString>
        <CharString name="Ygrave">
          -27 132 callsubr
          197 callgsubr
          1154 vstem
          380.99000549316406 72 callgsubr
          62 172 callsubr
          96.00999450683594 -36 -54 callgsubr
          65 rcurveline
          -275.97999572753906 342 -124.00999450683594 -128 rlineto
          75 -1282 -94 callsubr
        </CharString>
        <CharString name="Z">
          40 callgsubr
          136 callgsubr
          -39 callsubr
          -81 callgsubr
        </CharString>
        <CharString name="Zacute">
          40 callgsubr
          704.9799957275391 21 callgsubr
          62.02000427246094 27 callsubr
          -689.9900054931641 -1569.009994506836 -81 callgsubr
        </CharString>
        <CharString name="Zcaron">
          40 callgsubr
          235 callgsubr
          222 callgsubr
          131 callgsubr
          -84 callgsubr
          rlineto
          -402 -1836.009994506836 -81 callgsubr
        </CharString>
        <CharString name="Zdotaccent">
          47 0 163.97999572753906 1205 161 166 263 hstemhm
          640.9799957275391 152 callgsubr
          218 callgsubr
          640.9799957275391 1815 rmoveto
          10 callgsubr
          -59 callgsubr
          70.97999572753906 237 callsubr
          -46.99000549316406 -70 callgsubr
          -3 hvcurveto
          -625.9900054931641 -1726.009994506836 -81 callgsubr
        </CharString>
        <CharString name="a">
          35 -70 callsubr
          hstem
          81 -49 callsubr
          vstem
          944.9900054931641 1122 -98 callsubr
        </CharString>
        <CharString name="aacute">
          35 -70 callsubr
          hstem
          81 -49 callsubr
          vstem
          1076 1600 rmoveto
          -152 138 callsubr
          66 callsubr
          -23 callgsubr
          rlinecurve
          -357 -444.00999450683594 -103 callgsubr
        </CharString>
        <CharString name="abreve">
          35 -70 callsubr
          148 147 hstem
          81 -49 callsubr
          126.989990234375 140 vstem
          709 229 callgsubr
          rmoveto
          146 callsubr
          hvcurveto
          -52 callsubr
          -0.9799957275390625 145 callgsubr
          93 callgsubr
          216 vhcurveto
          235.99000549316406 -181.99000549316406 -98 callsubr
        </CharString>
        <CharString name="acircumflex">
          35 -70 callsubr
          hstem
          81 -49 callsubr
          vstem
          771.9900054931641 1515.990005493164 rmoveto
          62 callgsubr
          77 -77 240 callsubr
          rlineto
          -53 -360 -103 callgsubr
        </CharString>
        <CharString name="acute">
          -551 1260.990005493164 472 hstem
          69 458.99000549316406 vstem
          69 1332 rmoveto
          74 callsubr
          24 callsubr
          rlineto
          endchar
        </CharString>
        <CharString name="acute.cap">
          -584 222 callsubr
          67 callgsubr
          399.99000549316406 vstem
          67 callgsubr
          21 callgsubr
          62 111 rlinecurve
          -123.99000549316406 57 callsubr
          rlineto
          endchar
        </CharString>
        <CharString name="adieresis">
          35 -70 callsubr
          236 263 hstem
          81 -49 callsubr
          104 187 callgsubr
          vstem
          501.99000549316406 113 callgsubr
          -22 callsubr
          82 callsubr
          103 callgsubr
          -55 65 hhcurveto
          450 263 39 callsubr
          -233 -499 -103 callgsubr
        </CharString>
        <CharString name="ae">
          523 -83 callgsubr
          -143 143 hstemhm
          81 -49 callsubr
          401 211 472 195.99000549316406 hintmask 11011110
          1099.979995727539 138 callgsubr
          -91 callsubr
        </CharString>
        <CharString name="aeacute">
          523 -83 callgsubr
          -143 143 hstemhm
          81 -49 callsubr
          401 211 472 195.99000549316406 hintmask 11011110
          1280 113 callsubr
          -152 137 66 callsubr
          68 rlinecurve
          -180.02000427246094 -1458 -91 callsubr
        </CharString>
        <CharString name="agrave">
          35 -70 callsubr
          hstem
          81 -49 callsubr
          vstem
          694.9900054931641 2 callsubr
          250 -142.99000549316406 -98 callsubr
        </CharString>
        <CharString name="amacron">
          35 -70 callsubr
          243 221 callgsubr
          81 -49 callsubr
          190.989990234375 141 callgsubr
          vstem
          985.9900054931641 14 callsubr
          -41 -425.99000549316406 -98 callsubr
        </CharString>
        <CharString name="ampersand">
          424 -20 134 -131 139.97999572753906 561.010009765625 146 583 132.99000549316406 hstemhm
          93.97999572753906 204 37.010009765625 179.99000549316406 404.00999450683594 185.99000549316406 4.0099945068359375 181 hintmask 01111010
          1438.990005493164 828.9900054931641 rmoveto
          hintmask 01111001
          -286.97999572753906 1 rlineto
          -88 -49 -17 -18 -18 hvcurveto
          -10 -134 42 callsubr
          10 37 8 42 -88 callsubr
          rlinecurve
          12 50 callgsubr
          10 -46 -57.02000427246094 vvcurveto
          234 callgsubr
          -37 -95 -63 -70 vhcurveto
          -141 130 -117 163.99000549316406 -106.99000549316406 184 rrcurveto
          hintmask 01111110
          219 120 242 122 258.00999450683594 vvcurveto
          136 -123 173 -233 -241 -173 -177 -240.99000549316406 -110 41 -135 48 -105 vhcurveto
          hintmask 01111010
          -175 -99 -155.02000427246094 -116 -195.02000427246094 vvcurveto
          -282.99000549316406 150 callsubr
          -101.99000549316406 193 callgsubr
          133 116.02000427246094 23.979995727539062 46 94.99000549316406 vhcurveto
          hintmask 10111001
          -48.99000549316406 101 callgsubr
          102.02000427246094 -24 75 hhcurveto
          38 133 callsubr
          3 11 51 hvcurveto
          21.009994506835938 102 callsubr
          rlineto
          121 callgsubr
          hlineto
          -55 callgsubr
          -2 -76 11 -71 38 rrcurveto
          99 -63 callgsubr
          54 144.02000427246094 179 vvcurveto
          40 -5 84 callsubr
          -7 26.009994506835938 vhcurveto
          152 hlineto
          hintmask 01111010
          -43 callgsubr
          145 rlineto
          hintmask 01111110
          -924 305.00999450683594 rmoveto
          145 84 134 143 115 62 -82 -115 -163 -162.02000427246094 -97.00999450683594 -180.97999572753906 -55 callgsubr
          vhcurveto
          -30 64 -31 93 117 vvcurveto
          hintmask 01111010
          -217 -762 rmoveto
          120 83 93 callsubr
          113.00999450683594 101 callgsubr
          vhcurveto
          100.99000549316406 -170 93 callsubr
          -144 36 callsubr
          -176 rrcurveto
          -25 83 callsubr
          -70 -12 -75 hhcurveto
          -171 -188 58 191.02000427246094 hvcurveto
          endchar
        </CharString>
        <CharString name="aogonek">
          64 9 callsubr
          271.00999450683594 -20 callsubr
          hstem
          152 callsubr
          -49 callsubr
          201.99998474121094 194 vstem
          757.9900054931641 -287 rmoveto
          -23 -40 23 callsubr
          16.020004272460938 hlineto
          156 -29 callgsubr
          -113.00999450683594 -34 rlineto
          18 -64.97999572753906 140 callsubr
          16 -71 hhcurveto
          -450.99000549316406 -187 -427 -313 -259.99000549316406 98 -171.99000549316406 212 156 195 callsubr
          103.97000122070312 102.00999450683594 74.02000427246094 hvcurveto
          166 callgsubr
          -189.99000549316406 rlineto
          -76.99000549316406 -47 -168.02000427246094 12 callsubr
          137 28 callgsubr
          -55.99000549316406 214 callsubr
          -6 -36 hhcurveto
          -315.99000549316406 422.99000549316406 rmoveto
          -88 -55 89 215 237 50 callsubr
          336 286 49 callsubr
          54 82 callgsubr
          45 hvcurveto
          -86 -604 rlineto
          -106 -66 -124.00999450683594 -142 -140.99000549316406 hhcurveto
          endchar
        </CharString>
        <CharString name="approxequal">
          -47 284.99000549316406 151 callgsubr
          6.0099945068359375 151 callgsubr
          108.00999450683594 151 callgsubr
          5.9999847412109375 166 hstemhm
          -55 callsubr
          976.9900054931641 hintmask 01011000
          104.97999572753906 858.9900054931641 rmoveto
          71 -32 callsubr
          rlineto
          70 47 66 47 89 115 74 -171.99000549316406 153 hhcurveto
          hintmask 01101000
          151 132 -63 callgsubr
          108.00999450683594 29 hvcurveto
          -71 73 rlineto
          -70 -47 -65.99000549316406 -47 -89 -113 -75.99000549316406 172 -153 hhcurveto
          hintmask 01011000
          -151 -129 115 callsubr
          -55 callgsubr
          -32 hvcurveto
          -50 -446 rmoveto
          71 -32 callsubr
          rlineto
          70 47 177 callsubr
          47 89 115 74.02000427246094 -172 152.99000549316406 hhcurveto
          hintmask 10011000
          151 132.02000427246094 102 -5 callsubr
          29 hvcurveto
          -71 -47 callgsubr
          rlineto
          -70 -47 -66 -47 104 callsubr
          -113.00999450683594 -76 171.99000549316406 -153 hhcurveto
          hintmask 01011000
          -151 -128.99000549316406 -114 -55 callgsubr
          -32 hvcurveto
          endchar
        </CharString>
        <CharString name="aring">
          35 -70 callsubr
          101 106 319 108.00999450683594 hstem
          81 -49 callsubr
          159 137 callsubr
          342.00999450683594 67 callsubr
          vstem
          728.9900054931641 1256.979995727539 rmoveto
          178 157.99000549316406 86.02000427246094 181.99000549316406 167.02000427246094 -108 98 81 callgsubr
          -164 104.97999572753906 202 callgsubr
          -58.99000549316406 -81.02000427246094 -146.99000549316406 -87 -32.02000427246094 -102.00999450683594 -88 -64.99000549316406 66.00999450683594 80 136 -63 callgsubr
          36.99000549316406 69 callsubr
          hvcurveto
          -54 -525.9900054931641 -103 callgsubr
        </CharString>
        <CharString name="asciicircum">
          254 509.99000549316406 1020 hstem
          175.97999572753906 964.9900054931641 vstem
          686.9799957275391 -3 callsubr
          rmoveto
          -511 -1020 rlineto
          175 hlineto
          417.02000427246094 828 -49 callsubr
          -828 rlineto
          232 callgsubr
          hlineto
          -256.97999572753906 1020 rlineto
          -197.02000427246094 hlineto
          endchar
        </CharString>
        <CharString name="asciitilde">
          27 719.9900054931641 151 callgsubr
          5.9999847412109375 166 hstemhm
          131.99000549316406 926.9799957275391 hintmask 01100000
          131.99000549316406 847.9900054931641 rmoveto
          71 -32 callsubr
          rlineto
          70 47 177 callsubr
          47 89 115 74 -172 153 hhcurveto
          hintmask 10100000
          151 132 102 108.00999450683594 29 hvcurveto
          -70.97999572753906 -54 callgsubr
          rlineto
          -70 -47 -66 -47 -89 -112.99000549316406 -76 172 -153 hhcurveto
          hintmask 01100000
          -151 -129 -114.02000427246094 -55 callgsubr
          -56 callsubr
          hvcurveto
          endchar
        </CharString>
        <CharString name="asterisk">
          256 646.9799957275391 1005.9900054931641 hstem
          180 callsubr
          999.9900054931641 vstem
          180 callsubr
          982 rmoveto
          77 -167.02000427246094 256.97999572753906 171 118 98 -42 -145 -59 -291 197.02000427246094 -1 -1 292 -16 145 100.99000549316406 -98 219 -170 115 166.02000427246094 -255 102 callsubr
          90 callgsubr
          47 142 48 279 121 -77 166.99000549316406 -257 -170.99000549316406 -119.99000549316406 -95 43 142 58.99000549316406 291.97999572753906 rlineto
          -192 hlineto
          31 callsubr
          -291.97999572753906 13 -142 -100 95 -218 169.99000549316406 -115 165 callsubr
          255 -121 132 -47 -141.99000549316406 -48 -279 -119.99000549316406 rlineto
          endchar
        </CharString>
        <CharString name="at">
          858 -439.99000549316406 137 callsubr
          307.97999572753906 153 -148.989990234375 173.99000549316406 781.9999847412109 125 322 131 hstemhm
          121 152 259.99000549316406 178.99000549316406 455.00999450683594 177 372 152.99000549316406 hintmask 1101111110000000
          1184.990005493164 1544.990005493164 rmoveto
          -590.0099945068359 -473.99000549316406 -447 -724 -516.9700012207031 327.99000549316406 -297 449 171 163 46 70 92 hvcurveto
          -33 152 callsubr
          rlineto
          -32.99000549316406 212 callgsubr
          -192 -41 234 callgsubr
          hhcurveto
          -335.00999450683594 -304.99000549316406 191 507.97999572753906 504 332.99000549316406 512 541 305.00999450683594 264 -116 -438.99000549316406 hvcurveto
          hintmask 1011111110000000
          -323.00999450683594 -190 -350.99000549316406 -168 -10 162 callsubr
          10 18 41 -5.0200042724609375 122 callsubr
          10.020004272460938 103.00999450683594 vhcurveto
          179 callsubr
          201 51.02000427246094 314 39 153 -165 -30 rcurveline
          39 -55.99000549316406 -109 91 callsubr
          -55 hhcurveto
          -369.99000549316406 -164 -367 -291 -6 hvcurveto
          hintmask 1101111110000000
          -297 -6 37 callsubr
          -130 135 hhcurveto
          148 52 callsubr
          151 213.02000427246094 69 callsubr
          hvcurveto
          -6 -59 -6 -40 -47 vvcurveto
          hintmask 1011111110000000
          236 callgsubr
          0 -5 callgsubr
          53 callsubr
          230 callgsubr
          344.99000549316406 319 559 vhcurveto
          hintmask 1101111110000000
          400 -259.99000549316406 256 -424 vhcurveto
          -343 -1385 rmoveto
          -101 -29 130 157 229.99000549316406 125.00999450683594 290 227.99000549316406 55 92 -24 -51 33 hvcurveto
          -240 -30 -236.02000427246094 -492 -136.99000549316406 hhcurveto
          endchar
        </CharString>
        <CharString name="atilde">
          35 -70 callsubr
          196 -73 callgsubr
          81 -49 callsubr
          hintmask 11101000
          546.9700012207031 11 callgsubr
          hintmask 11011000
          -13 callsubr
          164 callgsubr
          -86 -43 hvcurveto
          87 70 callgsubr
          rlineto
          hintmask 11101000
          38.02000427246094 40 34 52 64.97999572753906 -1 rrcurveto
          172.02000427246094 -336 -103 callgsubr
        </CharString>
        <CharString name="b">
          53 8 callsubr
          hstem
          867.9799957275391 202 vstem
          759.9900054931641 1155.990005493164 -24 callsubr
          114.02000427246094 33.970001220703125 rlineto
          -17.979995727539062 64 53 callsubr
          -95 callgsubr
          71 -77 callgsubr
        </CharString>
        <CharString name="backslash">
          -256 -362 1958.990005493164 hstem
          25.990005493164062 749.9900054931641 vstem
          775.9900054931641 -362 rmoveto
          -174 hlineto
          -576 1958.990005493164 rlineto
          173 hlineto
          577 -1958.990005493164 rlineto
          endchar
        </CharString>
        <CharString name="bar">
          94 callsubr
          -1965.990005493164 173 1965.990005493164 -173 vlineto
          endchar
        </CharString>
        <CharString name="braceleft">
          -86 169 callsubr
          159.99000549316406 846.9900054931641 vstem
          377 578.9900054931641 rmoveto
          0 -89.00999450683594 -596.9900054931641 -1 -29 vhcurveto
          -110 -1 44 -33 195 callsubr
          hhcurveto
          110 74.02000427246094 42 callsubr
          26.009994506835938 114 callsubr
          hvcurveto
          0 -43 callgsubr
          -54 callgsubr
          3.0200042724609375 15 vhcurveto
          -275.00999450683594 hlineto
          95.00999450683594 630 6 41 -17 36.99000549316406 -30 31.009994506835938 rlinecurve
          -29 30 -54 30.990005493164062 -59 31 rrcurveto
          0 116 53 29 17 vhcurveto
          53 33 37 37 8 54 -15 callgsubr
          630.9900054931641 rcurveline
          276.00999450683594 hlineto
          0.9799957275390625 19 12 68 0 vvcurveto
          0 -170.99000549316406 47 -89 -157 -47 -9 callgsubr
          -198 91 callgsubr
          vhcurveto
          -77 -517.0200042724609 92 callgsubr
          -23 163 callgsubr
          -21 -36 -19 rlinecurve
          -52 -26.990005493164062 -75 -22 -65 166 callgsubr
          -18 -123.99000549316406 rcurveline
          59 -14 63 211 callgsubr
          43 -29 rrcurveto
          84 callsubr
          -21 76 callsubr
          -24 -22 vvcurveto
          endchar
        </CharString>
        <CharString name="braceright">
          -86 -189 134 1655.979995727539 135 hstem
          177 callsubr
          847.0099945068359 vstem
          695.9900054931641 966.9799957275391 rmoveto
          0 89 597.0200042724609 0.9900054931640625 29 vhcurveto
          110 1 -43.99000549316406 33 -125.00999450683594 hhcurveto
          -110 -74 196 callsubr
          121 callgsubr
          -91 hvcurveto
          0 -39 callgsubr
          -73 -94 callgsubr
          -15.009994506835938 vhcurveto
          193 callgsubr
          hlineto
          -5 callgsubr
          -629.9900054931641 -6 -41 17 -37 30 -31 rlinecurve
          29 -29.979995727539062 53.99000549316406 -31.009994506835938 59 -31 rrcurveto
          0 -116 -53 -29 -17 vhcurveto
          -53 -33 50 callgsubr
          -37 -8 -9 callgsubr
          -96.02000427246094 -631 rcurveline
          -275.97999572753906 hlineto
          -1 -18.990005493164062 -12 212 callgsubr
          0 vvcurveto
          0 171 -47 -39 callsubr
          157 47 54 198 31 vhcurveto
          77 517 4 23 25 42 callsubr
          36 19.009994506835938 rlinecurve
          52 26.990005493164062 75 120 callsubr
          65 16 18 124.00999450683594 rcurveline
          -59 13.990005493164062 -63 25 -43 29 rrcurveto
          -32 21 100 callsubr
          24 22 vvcurveto
          endchar
        </CharString>
        <CharString name="bracketleft">
          -256 169 callsubr
          179.99000549316406 690.9900054931641 vstem
          380.99000549316406 1483 rmoveto
          -60 -455 -116 -598 196 callsubr
          -367 rrcurveto
          -3 -40 -0.9900054931640625 -36 -34 vvcurveto
          -110 46 -33 125.99000549316406 109 198 callgsubr
          42 callsubr
          26.009994506835938 114 callsubr
          vhcurveto
          3 28 -88 callsubr
          29 4 29 rrcurveto
          -87 -99.97999572753906 38 callgsubr
          -88 hhcurveto
          166 callsubr
          1655.990005493164 rlineto
          275 hlineto
          13 87 rlineto
          0 -172 47 -88 -157.97999572753906 -47 83 callsubr
          -192 211 callgsubr
          vhcurveto
          endchar
        </CharString>
        <CharString name="bracketright">
          -256 -178.99000549316406 134 1655.9800109863281 134.97999572753906 hstem
          44.99000549316406 690.9900054931641 vstem
          535 -54 callgsubr
          rmoveto
          133 callsubr
          455 116 598 21.020004272460938 367 rrcurveto
          -88 callsubr
          40 1 36 34 vvcurveto
          110 -46 33 -126 -109.02000427246094 -72.99000549316406 -21 121 callgsubr
          68 callgsubr
          vhcurveto
          -94 callgsubr
          -28 -94 callgsubr
          -29 -4.0099945068359375 -29 rrcurveto
          87 100 31 callsubr
          88 hhcurveto
          -223 -1655.990005493164 rlineto
          -274.97999572753906 hlineto
          -13 -87 rlineto
          0 172 -47 88 158 47 133 callsubr
          192 25 vhcurveto
          endchar
        </CharString>
        <CharString name="breve">
          -393 1299.979995727539 147 200 callgsubr
          1631.990005493164 rmoveto
          -159 83 -173 216 198 116 163 155 22 vhcurveto
          2 11.020004272460938 158 callsubr
          -60 -23 -30 -144 -147 hhcurveto
          -125.99000549316406 -25 104 69 225 callsubr
          9.020004272460938 rrcurveto
          -135 hlineto
          -1 -6 0 -7 -6 vvcurveto
          endchar
        </CharString>
        <CharString name="breve.cap">
          -395 1628.990005493164 146.97999572753906 200 callgsubr
          8 callgsubr
          0.9900054931640625 11 11 vvcurveto
          -132 100 callgsubr
          -125.99000549316406 -25 104 61 callsubr
          225 callsubr
          -37 callgsubr
          endchar
        </CharString>
        <CharString name="brokenbar">
          94 callsubr
          -894.0099945068359 173 894.0099945068359 -173 vlineto
          -1072 vmoveto
          -893.9900054931641 173 893.9900054931641 -173 vlineto
          endchar
        </CharString>
        <CharString name="bullet">
          -252 506.97999572753906 432 hstem
          232.97999572753906 427 vstem
          232.97999572753906 682.9900054931641 rmoveto
          -97 76 -79.00999450683594 100 153 98 140 120.02000427246094 99 -75 -54 callgsubr
          -101.00999450683594 -141.99000549316406 -109.02000427246094 -136 -119.99000549316406 vhcurveto
          endchar
        </CharString>
        <CharString name="c">
          -17 callsubr
          664.9900054931641 1155.990005493164 -96 callgsubr
        </CharString>
        <CharString name="cacute">
          -17 callsubr
          560.9900054931641 -16 callgsubr
          104 -176 -96 callgsubr
        </CharString>
        <CharString name="caron">
          -315 1284.990005493164 394.99000549316406 hstem
          79.99000549316406 734 vstem
          79.99000549316406 1591.990005493164 rmoveto
          243 -307 rlineto
          176 hlineto
          -21 callgsubr
          rlineto
          endchar
        </CharString>
        <CharString name="caron.cap">
          -317 212 callsubr
          386 hstem
          123 callsubr
          734 vstem
          123 callsubr
          222 callgsubr
          131 callgsubr
          -84 callgsubr
          rlineto
          endchar
        </CharString>
        <CharString name="caronvertical">
          -795 1034.990005493164 644.9900054931641 hstem
          237.99000549316406 36 callsubr
          vstem
          197 1099.979995727539 rmoveto
          6 163 callgsubr
          99.99000549316406 -40 rlineto
          72 109 46 175 -72 callsubr
          vvcurveto
          97.02000427246094 -4 76 -24 57 vhcurveto
          -177 -46 -26 callsubr
          -32 rlineto
          -23 callsubr
          -30 11.020004272460938 -86 -75 vvcurveto
          195 callgsubr
          -19 -111 -22 -93 vhcurveto
          endchar
        </CharString>
        <CharString name="ccaron">
          -17 callsubr
          343.97999572753906 1591.990005493164 34 callsubr
          -252 244 -87 -88 rlineto
          321 -436 -96 callgsubr
        </CharString>
        <CharString name="ccedilla">
          -205 -460 165 229 callgsubr
          147 130 callsubr
          103 171 vstem
          647.9900054931641 1008.9900054931641 rmoveto
          72 62 -69 callgsubr
          -43 52 hvcurveto
          51 167 rlineto
          29 -57 -91 9.009994506835938 -72 hhcurveto
          -385 -194.99000549316406 -409 -313 -253 105 -159.99000549316406 197 -30.979995727539062 hvcurveto
          1 -34 -1 -41 -30 142 callgsubr
          -17 vhcurveto
          -25 126 callgsubr
          194 callgsubr
          -8 52 -15 39.02000427246094 hvcurveto
          139 24.979995727539062 -63 callgsubr
          91 44 59 -65 106 rcurveline
          -97.00999450683594 -100 -75 -41.99000549316406 -88 hhcurveto
          -134 -74 51 callsubr
          238 324.00999450683594 54 callsubr
          231 170 hvcurveto
          endchar
        </CharString>
        <CharString name="ccircumflex">
          -17 callsubr
          325.97999572753906 6 callgsubr
          94 68 -189.99000549316406 374 rlineto
          -178.02000427246094 hlineto
          -327 -374 rlineto
          339 -159.99000549316406 -96 callgsubr
        </CharString>
        <CharString name="cdotaccent">
          -205 -95 callgsubr
          37 callsubr
          875.9799957275391 147 236 263 130 callsubr
          262 -64 callgsubr
          vstem
          546 1512 rmoveto
          -58 callsubr
          -22 callgsubr
          -356 -96 callgsubr
        </CharString>
        <CharString name="cedilla">
          -631 -463.99000549316406 -51 callgsubr
          hstem
          233 callgsubr
          171 vstem
          331.97999572753906 34 rmoveto
          -76.99000549316406 92 callgsubr
          rlineto
          6.9900054931640625 -56 callsubr
          -94 callgsubr
          -71.99000549316406 -45.02000427246094 vvcurveto
          -149 -77 -31 228 callgsubr
          5.0200042724609375 9 -17 vhcurveto
          -25 -151 rlineto
          -16 22 -54 callgsubr
          -12 53 hhcurveto
          148 130 -54 callgsubr
          226 88 -17 68.00999450683594 -28.020004272460938 38.970001220703125 hvcurveto
          -53 54 callgsubr
          rlineto
          endchar
        </CharString>
        <CharString name="cent">
          -53 -69 callgsubr
          -42 callgsubr
          875.9799957275391 348.99000549316406 hstem
          138 callsubr
          199 vstem
          699.9900054931641 1008.9900054931641 rmoveto
          72 62 -69 callgsubr
          -43 52 hvcurveto
          51 167 -14 callgsubr
          24 -71 11 -64 2 rlinecurve
          51 203 rlineto
          -150 hlineto
          -54 -215 rlineto
          -308 -72 -156 -356.99000549316406 -280 vvcurveto
          -236 114 callsubr
          -155 172 -44.99000549316406 vhcurveto
          -39 -212.99000549316406 rlineto
          150.02000427246094 hlineto
          36.99000549316406 200 159 13.990005493164062 117 102.99000549316406 48 64 rlinecurve
          -65 106 rlineto
          -97.00999450683594 -100 -75 -41.99000549316406 -88 hhcurveto
          -134 -74 51 callsubr
          238 324.00999450683594 54 callsubr
          231 170 hvcurveto
          endchar
        </CharString>
        <CharString name="circumflex">
          -315 1238.990005493164 450.99000549316406 hstem
          -39 callsubr
          695 vstem
          -39 callsubr
          6 callgsubr
          94 68 -190 374 rlineto
          -178 hlineto
          -327 -374 rlineto
          endchar
        </CharString>
        <CharString name="circumflex.cap">
          -315 1584.979995727539 421 hstem
          37 callgsubr
          695 vstem
          37 callgsubr
          -53 callgsubr
          94 68 194 callsubr
          344 -12 callgsubr
          -344 rlineto
          endchar
        </CharString>
        <CharString name="colon">
          -584 -22 68 callsubr
          536.989990234375 68 callsubr
          hstemhm
          67.99000549316406 275.97999572753906 -182.97999572753906 275.97999572753906 hintmask 00000000
          hintmask 11010000
          317.99000549316406 1058.979995727539 rmoveto
          -95 -62 -76.97999572753906 -83 215 callsubr
          54 -46 -25 callgsubr
          95 62 60 100 59 -34 103 callgsubr
          83 callgsubr
          hvcurveto
          hintmask 11100000
          -93 -808.9799957275391 rmoveto
          -95 176 callsubr
          -25 callgsubr
          95 62 133 callsubr
          100 59 -34 53 -85 hvcurveto
          endchar
        </CharString>
        <CharString name="colonmonetary">
          223 -6 callgsubr
          -145.989990234375 151.97999572753906 1254.010009765625 152 hstemhm
          146.97999572753906 217 hintmask 10110000
          618.9900054931641 -352.99000549316406 rmoveto
          117 hlineto
          70 340.99000549316406 175 13.990005493164062 138 44 67.00999450683594 177 callsubr
          rlinecurve
          hintmask 01110000
          -57.02000427246094 129 -77.99000549316406 -48.99000549316406 84 callgsubr
          214 callsubr
          -129.99000549316406 -14 rlinecurve
          252.99000549316406 1241 76 -13 49 196 callsubr
          18 -18 rlinecurve
          64 163 -45.02000427246094 14.009994506835938 -57 17 -74 11 rlinecurve
          57 281 rlineto
          -116 hlineto
          -55 -270 rlineto
          1 -15 -69 callgsubr
          0 166 callgsubr
          hhcurveto
          91 callgsubr
          -30 -2 -94 callgsubr
          -30 hvcurveto
          49 callsubr
          274 rlineto
          -117 172 callgsubr
          -295.02000427246094 rlineto
          -357 -90.99000549316406 -245 -325 -454 vvcurveto
          -241 86 -260 214.02000427246094 -110 vhcurveto
          231 callsubr
          -391.97999572753906 rlineto
          116 hlineto
          hintmask 10110000
          72.00999450683594 351.99000549316406 rlineto
          -10 40 44.02000427246094 -5 47.99000549316406 hhcurveto
          1 hlineto
          -69 -337 rlineto
          310 1746.979995727539 rmoveto
          16 16 0 -1 91 callsubr
          hvcurveto
          -257 -1259 rlineto
          -2 hlineto
          -48.99000549316406 -43 8 91 callsubr
          -14 callsubr
          hvcurveto
          161 callsubr
          1231 rlineto
          106 callgsubr
          29 30 2 31 hhcurveto
          -565 -713.0099945068359 rmoveto
          6 350 127 235 218 89 -230 -1129 rcurveline
          -91 97 -34 151 callgsubr
          4 192 rrcurveto
          endchar
        </CharString>
        <CharString name="comma">
          -584 -501 765.9900054931641 hstem
          -51 callgsubr
          151 callsubr
          vstem
          69 197 callgsubr
          -24 callgsubr
        </CharString>
        <CharString name="copyright">
          1019 233 callsubr
          129 268 156.99000549316406 657.0099945068359 156.99000549316406 264.02000427246094 125.99000549316406 hstem
          54 callsubr
          142 285 54 callsubr
          977.0199890136719 -47 callsubr
          53 1239 rmoveto
          -323.00999450683594 -173 -214 -280 -248 163 -229 277 133 121 40 54 65 hvcurveto
          -45 124.00999450683594 rlineto
          -28 -49.99000549316406 -92.02000427246094 -33 -104.97999572753906 hhcurveto
          -160.02000427246094 -113 118 217 180 99 67 callsubr
          184 100 70 -26.990005493164062 -36 -55 callsubr
          hvcurveto
          32 164 rlineto
          -23 callsubr
          -35 -75 36 -128 hhcurveto
          endchar
        </CharString>
        <CharString name="currency">
          430 161 callsubr
          132.99000549316406 609.989990234375 133.00999450683594 hstem
          341.99000549316406 -42 callgsubr
          584.0099945068359 -42 callgsubr
          vstem
          1221.979995727539 689.9900054931641 rmoveto
          89 -27 51 callsubr
          -45 69 vhcurveto
          191 191.02000427246094 -113 113.99000549316406 -190 -188.99000549316406 rlineto
          51 -72 104 callsubr
          30 -95 hhcurveto
          -90.99000549316406 84 callgsubr
          -27.020004272460938 -47 -71 hvcurveto
          -193.99000549316406 195 -113.00999450683594 115 callsubr
          193 -192.99000549316406 rlineto
          -50 -71 -30 -87 -94 vvcurveto
          -95.00999450683594 30 -88 52 -71.99000549316406 vhcurveto
          -192 -192 113.99000549316406 -113.00999450683594 194 194 rlineto
          -46 69 53 callgsubr
          121 callgsubr
          89 hhcurveto
          93 85.02000427246094 28 49 70.97999572753906 hvcurveto
          194 -194 113.99000549316406 113.00999450683594 -193.99000549316406 194 rlineto
          37 callgsubr
          70 28 86 92 vvcurveto
          -440 -305.00999450683594 rmoveto
          -162 -130 138.02000427246094 167 167 130 138 callgsubr
          162 162 130 -137.99000549316406 -167 -167 -130 -138.02000427246094 -162 hvcurveto
          endchar
        </CharString>
        <CharString name="d">
          51 106 callsubr
          vstem
          937.9799957275391 90 callsubr
          rmoveto
          -67.99000549316406 -497.00999450683594 rlineto
          -89 callsubr
          221 191 callsubr
          -195 hlineto
          -513.9900054931641 -1502 -86 callsubr
        </CharString>
        <CharString name="dagger">
          -295 1126.990005493164 164 callsubr
          hstem
          457.99000549316406 121.97000122070312 vstem
          387.99000549316406 1007.9799957275391 rmoveto
          -93 -856.9900054931641 rlineto
          117 hlineto
          -51 callgsubr
          856.9900054931641 6 50 callsubr
          rlineto
          271.02000427246094 hlineto
          42 callsubr
          150 rlineto
          -293 hlineto
          61 192 30 177 rlineto
          194 callsubr
          hlineto
          -23.979995727539062 -177 -2 -192 rlineto
          -300 hlineto
          77 callsubr
          -150 rlineto
          279 hlineto
          -25.990005493164062 236 callgsubr
          rlineto
          endchar
        </CharString>
        <CharString name="daggerdbl">
          -295 628.9799957275391 150.00999450683594 348.00001525878906 164 callsubr
          hstemhm
          387.47999572753906 204.49000549316406 -122.49000549316406 394.99000549316406 hintmask 11100000
          197 callsubr
          509.99000549316406 rmoveto
          -44 -560.9900054931641 rlineto
          115.02000427246094 hlineto
          117.99000549316406 560.9900054931641 7 -22 callgsubr
          rlineto
          214 hlineto
          21.020004272460938 150.02000427246094 rlineto
          -225.02000427246094 hlineto
          59 202 6 146 rlineto
          hintmask 11010000
          259.02000427246094 hlineto
          42 callsubr
          150 rlineto
          -281 hlineto
          61 192 30 177 rlineto
          hintmask 11100000
          -190 hlineto
          163 callgsubr
          -177 -1 -192 rlineto
          -271.00999450683594 hlineto
          100 callsubr
          -150 rlineto
          249 hlineto
          -40 -146 1 -202 rlineto
          -229 hlineto
          -24 -150.02000427246094 rlineto
          218 hlineto
          -29 -118.99000549316406 rlineto
          endchar
        </CharString>
        <CharString name="dcaron">
          319 106 callsubr
          982.9999847412109 183 vstem
          1419 1649.990005493164 rmoveto
          35 callgsubr
          -18.990005493164062 -111 77 callsubr
          -93 vhcurveto
          30 callsubr
          92 callgsubr
          76 -23.979995727539062 57 vhcurveto
          -549 -509.00999450683594 rmoveto
          -89 callsubr
          221 191 callsubr
          -195 hlineto
          -67.99000549316406 -497.00999450683594 rlineto
          -446 -1005 -86 callsubr
        </CharString>
        <CharString name="dcroat">
          51 -70 callsubr
          106.010009765625 52 callsubr
          hstem
          -49 callgsubr
          vstem
          1225.990005493164 113 callgsubr
          -126.00999450683594 hlineto
          33 246 rlineto
          -195 hlineto
          -32.99000549316406 -246 rlineto
          -261 hlineto
          -16 -129.99000549316406 rlineto
          233 callgsubr
          hlineto
          -17 -121.02000427246094 rlineto
          -89 callsubr
          170 1262 rlineto
          128 hlineto
          16 52 callsubr
          rlineto
          -802 -1256 -86 callsubr
        </CharString>
        <CharString name="degree">
          -211 954.9799957275391 121.00999450683594 402.99000549316406 121.00999450683594 hstem
          143.99000549316406 140 379.989990234375 140 vstem
          143.99000549316406 1277.990005493164 rmoveto
          -177 -3 137.02000427246094 -146 185 hhcurveto
          193 145 138.02000427246094 185 -30 callgsubr
          140 callgsubr
          3 -140 145.02000427246094 -185 hhcurveto
          -193 -142 -139.02000427246094 -182.99000549316406 -94 callgsubr
          hvcurveto
          519.9900054931641 hmoveto
          -116 31 callsubr
          -81 -86 -111 hhcurveto
          -106 -82 91 111 2 hvcurveto
          115 38 callgsubr
          123 callgsubr
          86 111 hhcurveto
          105.99000549316406 83 77 callgsubr
          -111 -2 hvcurveto
          endchar
        </CharString>
        <CharString name="dieresis">
          -301 209 callsubr
          133 callsubr
          -64 callgsubr
          152.99998474121094 -10 callgsubr
          hintmask 11100000
          -2 callgsubr
          420 hmoveto
          82 callsubr
          179 callgsubr
          58 callgsubr
          -41 callgsubr
          endchar
        </CharString>
        <CharString name="dieresis.cap">
          -303 64 callgsubr
          57.99000549316406 52 callgsubr
          152.00999450683594 -10 callgsubr
          hintmask 11100000
          58 -31 callsubr
          -59 callgsubr
          -93 callsubr
          417 hmoveto
          -66 52 -53 63 80 69 70 77 3.0200042724609375 vhcurveto
          220 callsubr
          -14 callgsubr
          53 -76 hhcurveto
          -64 -82 -85 callgsubr
          hvcurveto
          endchar
        </CharString>
        <CharString name="divide">
          228 161 callsubr
          68 callsubr
          172.00999450683594 156.99000549316406 172.99998474121094 68 callsubr
          hstemhm
          589.9799957275391 295.99000549316406 218 callgsubr
          589.9900054931641 1151 rmoveto
          134 callsubr
          -26 callsubr
          194 callgsubr
          -47 70 hhcurveto
          76 88 60 87 10 hvcurveto
          68 8 -36 57 -93 hhcurveto
          -75 -91 -63 70 callgsubr
          59 callsubr
          -331 -298 rmoveto
          -18 -157 rlineto
          869.0099945068359 hlineto
          18 157 rlineto
          -869 hlineto
          235 -476 rmoveto
          134 callsubr
          -39 callgsubr
          60 -47 71 hhcurveto
          67 callgsubr
          84 60 87 11 hvcurveto
          139 callgsubr
          8 -35 58 -93 hhcurveto
          -76 -89 -64 -82.99000549316406 -10 hvcurveto
          endchar
        </CharString>
        <CharString name="dollar">
          94 229 callsubr
          361.97999572753906 1262.000015258789 334.99000549316406 hstem
          282.99000549316406 198 333.989990234375 206 vstem
          852.9900054931641 1538.990005493164 rmoveto
          31 189.99000549316406 rlineto
          -181 hlineto
          -30 -187.99000549316406 -232 -25 -163 -146 5 -234 rlinecurve
          4 -222 158 -127 153 -100.99000549316406 rrcurveto
          -51 callgsubr
          -109.02000427246094 52 -92 -112 vvcurveto
          -175 -29 callsubr
          -65.99000549316406 -159 -27 callgsubr
          vhcurveto
          -55 -159.99000549316406 37 -31 116 135 callsubr
          135 -13 rlinecurve
          -34 199 callgsubr
          rlineto
          180 hlineto
          35 213 250 30.979995727539062 140 callgsubr
          148 -4 233 callgsubr
          rlinecurve
          162 callsubr
          -3 callgsubr
          -171 116.02000427246094 -70 67.99000549316406 7 159.99000549316406 rrcurveto
          171 7.9900054931640625 153 35 50 callsubr
          hhcurveto
          76 128 -42 callsubr
          -64.99000549316406 63 hvcurveto
          63 151 -41 29 -75 36.99000549316406 -122 13 rlinecurve
          endchar
        </CharString>
        <CharString name="dong">
          224 0 228 callsubr
          112.989990234375 167 626 164 124.010009765625 221 callgsubr
          36 callsubr
          151 callsubr
          vstem
          729.9900054931641 1520.990005493164 rmoveto
          -23 137 callgsubr
          rlineto
          273 hlineto
          -24 -169 rlineto
          17 -56 callsubr
          -59 28 -96.00999450683594 hhcurveto
          -361 198 callsubr
          -272 -325 -2 hvcurveto
          -245 -2 161.02000427246094 -115.02000427246094 199 hhcurveto
          180 99 61 callsubr
          41 37 callgsubr
          hvcurveto
          -26 callsubr
          -70 -1 -8 -5 vvcurveto
          -12 -88 callsubr
          78 callgsubr
          91 callsubr
          vhcurveto
          149 hlineto
          153 1081.020004272461 rlineto
          234.99000549316406 hlineto
          23.020004272460938 37 callsubr
          rlineto
          -237.02000427246094 hlineto
          24 173 rlineto
          -196 hlineto
          121 callgsubr
          -173 rlineto
          -272 hlineto
          12 -437 rmoveto
          112 58 -27 -12 12 hvcurveto
          212 callgsubr
          -481 rlineto
          77 callsubr
          -28 -51 callsubr
          70 callgsubr
          -204 hhcurveto
          -114.02000427246094 -65 76 158 1 hvcurveto
          184 1 110 208 240 hhcurveto
          -669 -906 rmoveto
          -27 -177.99000549316406 rlineto
          1105 hlineto
          26.990005493164062 228 callsubr
          rlineto
          -1105 hlineto
          endchar
        </CharString>
        <CharString name="dotaccent">
          -723 215 callgsubr
          263 hstem
          133 callsubr
          -64 callgsubr
          vstem
          -2 callgsubr
          endchar
        </CharString>
        <CharString name="dotaccent.cap">
          -721 1695.979995727539 263 hstem
          57.99000549316406 52 callgsubr
          vstem
          58 -31 callsubr
          -59 callgsubr
          -93 callsubr
          endchar
        </CharString>
        <CharString name="dotlessi">
          0 1139.990005493164 hstem
          124 callsubr
          350 vstem
          279 1140 -93 callgsubr
          endchar
        </CharString>
        <CharString name="e">
          -75 -83 callgsubr
          hstem
          86 -32 callgsubr
          476.989990234375 196 vstem
          683.9900054931641 1155.990005493164 -106 callsubr
        </CharString>
        <CharString name="eacute">
          -75 -83 callgsubr
          hstem
          86 -32 callgsubr
          476.989990234375 196 vstem
          554.9900054931641 -16 callgsubr
          129 -176 -106 callsubr
        </CharString>
        <CharString name="ebreve">
          -75 -83 callgsubr
          148 147 hstemhm
          86 -32 callgsubr
          56 140 280.989990234375 196 hintmask 00000000
          hintmask 11111110
          348 1635.979995727539 223 callgsubr
          93 callgsubr
          216 46 callgsubr
          120 callsubr
          vhcurveto
          38 callgsubr
          11 1 11 11 vvcurveto
          -131.99000549316406 -60 callsubr
          27 callgsubr
          336 -479.99000549316406 rmoveto
          hintmask 11111010
          -351.00999450683594 -237 -321 -401 -9.990005493164062 hvcurveto
          -228 -6 116 -221.97999572753906 283 hhcurveto
          194 159 122.97999572753906 79.00999450683594 57 hvcurveto
          -55 110.99000549316406 rlineto
          -106.99000549316406 -114 -118 -52 -100 hhcurveto
          -81 callsubr
          hintmask 11111110
          141 -89 109 -192 vhcurveto
          84.99000549316406 -267 rmoveto
          hintmask 11111010
          -197 -309.97999572753906 -121.02000427246094 -162.02000427246094 224 callgsubr
          20 120 268 204 hhcurveto
          hintmask 11111110
          74.02000427246094 53.99000549316406 -28 -90.99000549316406 hvcurveto
          endchar
        </CharString>
        <CharString name="ecaron">
          -75 -83 callgsubr
          hstem
          86 -32 callgsubr
          476.989990234375 196 vstem
          337.97999572753906 1591.990005493164 34 callsubr
          -252 244 -87 -88 rlineto
          346.00999450683594 -436 -106 callsubr
        </CharString>
        <CharString name="ecircumflex">
          -75 -83 callgsubr
          hstem
          86 -32 callgsubr
          476.989990234375 196 vstem
          320 1315.979995727539 rmoveto
          76.97999572753906 -76.99000549316406 75 callgsubr
          94 68 -189.99000549316406 374 rlineto
          -178.02000427246094 hlineto
          -326.97999572753906 -374 rlineto
          363.99000549316406 -159.99000549316406 -106 callsubr
        </CharString>
        <CharString name="edieresis">
          -75 -83 callgsubr
          232.010009765625 263 hstemhm
          86 -32 callgsubr
          33 -64 callgsubr
          152.99998474121094 230 callgsubr
          -243.02000427246094 196 hintmask 00000000
          hintmask 10111110
          325 149 callsubr
          -65 -3 48 callgsubr
          80 133 callgsubr
          3 128 callsubr
          -88 callsubr
          -48.99000549316406 53 -76 hhcurveto
          -73.02000427246094 -69 -34 callsubr
          419.99000549316406 hmoveto
          97 callgsubr
          65 hhcurveto
          80 133 callgsubr
          3 128 callsubr
          -88 callsubr
          -49 53 -75.99000549316406 hhcurveto
          -73.00999450683594 149 callgsubr
          hintmask 11101001
          -60.99000549316406 -351.99000549316406 -106 callsubr
        </CharString>
        <CharString name="edotaccent">
          -75 -83 callgsubr
          236 263 hstemhm
          86 -32 callgsubr
          248 -64 callgsubr
          -38.00001525878906 196 hintmask 00000000
          hintmask 10111100
          540 1512 rmoveto
          -65 -3 53 -55 65 hhcurveto
          -92 callsubr
          hintmask 11101010
          144 -356 -106 callsubr
        </CharString>
        <CharString name="egrave">
          -75 -83 callgsubr
          hstem
          86 -32 callgsubr
          476.989990234375 196 vstem
          276.99000549316406 1600 rmoveto
          16 callsubr
          84.99000549316406 70 rcurveline
          12 callgsubr
          rlineto
          407 -444.00999450683594 -106 callsubr
        </CharString>
        <CharString name="eight">
          160 -95 callgsubr
          135.99000549316406 1319.979995727539 129 hstemhm
          122.97999572753906 212 -38 201 370 216 -133 196.99000549316406 hintmask 00000000
          hintmask 11010100
          489.97999572753906 820.9799957275391 rmoveto
          hintmask 11101000
          -193 -82 -174 -172.99000549316406 -214 vvcurveto
          -247 228 -120.97000122070312 206 292 234.99000549316406 156.97000122070312 266.02000427246094 168 -127 125.99000549316406 -146 -63 callgsubr
          vhcurveto
          hintmask 11010100
          170 55 167 179 203 vvcurveto
          202.02000427246094 -168 127 -216 -267 -200 -146 -262 -153 84 -99 109 -88 vhcurveto
          461 404.00999450683594 rmoveto
          -158 -105 -127 -136.99000549316406 -61 vhcurveto
          -123 88 -88 92 138.02000427246094 vvcurveto
          134 103 108.99000549316406 141 111 98 -73.99000549316406 -141 vhcurveto
          hintmask 11101000
          -359 -1105 rmoveto
          -156 -101 106 151 hvcurveto
          106 callgsubr
          163 114.02000427246094 139 140 69 rrcurveto
          173 -115 -63 callgsubr
          -116 -148 vvcurveto
          -144 -117 -105 -29 callsubr
          vhcurveto
          endchar
        </CharString>
        <CharString name="ellipsis">
          469 -22 68 callsubr
          hstemhm
          87.97999572753906 278.02000427246094 247.99000549316406 277.99000549316406 248.00999450683594 277.99000549316406 218 callgsubr
          245.99000549316406 250 rmoveto
          -75 -72.00999450683594 -64 -83 -11 hvcurveto
          -78 -10 49 -46.97999572753906 231 callgsubr
          hhcurveto
          79.00999450683594 77 57.97999572753906 89 12 hvcurveto
          68 -43 callgsubr
          -34 57.02000427246094 -95 hhcurveto
          526 hmoveto
          -75 -72.00999450683594 -64 -83 -11 hvcurveto
          -78 -10 37 callgsubr
          -46.97999572753906 71 hhcurveto
          78.99000549316406 -1 callsubr
          -5 callgsubr
          hhcurveto
          525.9900054931641 hmoveto
          -75 -71.99000549316406 -64 -83 -11 hvcurveto
          -78 -10.020004272460938 49 -46.97999572753906 71 hhcurveto
          78.99000549316406 77 57.97999572753906 89 12 hvcurveto
          68 -43 callgsubr
          -34 57.02000427246094 -95 hhcurveto
          endchar
        </CharString>
        <CharString name="emacron">
          -75 -83 callgsubr
          243 37 callsubr
          hstemhm
          86 -32 callgsubr
          119.989990234375 509.52000427246094 -152.52000427246094 196 hintmask 00000000
          hintmask 10111100
          413.97999572753906 116 callsubr
          hintmask 11111010
          270.00999450683594 -391.99000549316406 -106 callsubr
        </CharString>
        <CharString name="emdash">
          921 182 callsubr
          1620 vstem
          246.99000549316406 850.9799957275391 rmoveto
          -29 -157 rlineto
          1590 hlineto
          30 157 rlineto
          -1591.009994506836 hlineto
          endchar
        </CharString>
        <CharString name="endash">
          428 182 callsubr
          1126.990005493164 vstem
          247.99000549316406 850.9799957275391 rmoveto
          -30 -157 rlineto
          1096.990005493164 hlineto
          30 157 rlineto
          -1096.990005493164 hlineto
          endchar
        </CharString>
        <CharString name="eng">
          84 -518 106 1386.990005493164 181 hstem
          227 callsubr
          vstem
          843.9799957275391 150 callgsubr
          -162 -164.99000549316406 -109 -134 -115.02000427246094 hvcurveto
          21.009994506835938 227 rlineto
          -185 hlineto
          -155.02000427246094 -1140 -19 callsubr
          152 callsubr
          709.9799957275391 rlineto
          139.02000427246094 105 170 126 112 hhcurveto
          -25 callgsubr
          40 42 callgsubr
          -138.02000427246094 -49.99000549316406 -315.99000549316406 -54 -335.00999450683594 hvcurveto
          -238.97999572753906 -14 callsubr
          -70 -238 -194 hhcurveto
          -11 -41 4 8.009994506835938 -18 hvcurveto
          -35 -81 rlineto
          -24 120 callsubr
          -55 callsubr
          -13 63 hhcurveto
          228 173 167 351 53 hvcurveto
          52 338.97999572753906 64 405.02000427246094 122 vvcurveto
          205 callgsubr
        </CharString>
        <CharString name="eogonek">
          -59 9 callsubr
          271.00999450683594 153.99000549316406 286.97999572753906 139.00999450683594 443.99000549316406 148 hstem
          86 -32 callgsubr
          62 54 callsubr
          220.99998474121094 196 vstem
          501.99000549316406 138 callgsubr
          rmoveto
          -81 callsubr
          141 -89 109 -192 -351.00999450683594 -237 -321 -401 -9.990005493164062 vhcurveto
          -228 -6 116 -221.97999572753906 283 hhcurveto
          41 40 6 -43 callgsubr
          38.02000427246094 hvcurveto
          134 callsubr
          -47 165 callsubr
          -106 -127 vvcurveto
          -63 49 callsubr
          -91 138 callsubr
          116.02000427246094 87 58 36 41.99000549316406 81 callsubr
          -56 -38 147 callgsubr
          240 216.99000549316406 61 67.00999450683594 hvcurveto
          -7 -4 19 179 callsubr
          16 18 12 16.020004272460938 rlinecurve
          -55 110.99000549316406 rlineto
          -106.99000549316406 -114 -118 -52 -100 hhcurveto
          139 869.9900054931641 rmoveto
          74.02000427246094 53.99000549316406 -28 -90.99000549316406 -197 -309.97999572753906 -121.02000427246094 -162.02000427246094 -6.9900054931640625 hvcurveto
          175.99000549316406 20 120 268 204 hhcurveto
          endchar
        </CharString>
        <CharString name="equal">
          95 callsubr
          180 callgsubr
          1004.9900054931641 186 callgsubr
          -70 -509.00999450683594 186 callgsubr
          endchar
        </CharString>
        <CharString name="estimated">
          262 -95 callgsubr
          116.97999572753906 529.9900054931641 137 470.010009765625 117.99000549316406 hstem
          115 259.99000549316406 660.989990234375 244.00999450683594 vstem
          1268.979995727539 630.9900054931641 rmoveto
          11.020004272460938 51 0 64 86.02000427246094 vvcurveto
          -11.020004272460938 328.99000549316406 -238 200 -288.99000549316406 -5.0200042724609375 rrcurveto
          -420 -6.9900054931640625 121 callsubr
          -286 -392 vvcurveto
          -430 180 callsubr
          -256.97999572753906 392.00999450683594 138 199 36.97999572753906 194 callgsubr
          84.99000549316406 vhcurveto
          -39 113.00999450683594 rlineto
          -33 -65 -151 -61 -145 hhcurveto
          -163 -140 47 132 -82 hvcurveto
          351 894 vlineto
          -540 607.0099945068359 rmoveto
          158 94 -52 -77 -55 callsubr
          hvcurveto
          -340.99000549316406 -661 285 vlineto
          132 80 130 53 144 hhcurveto
          endchar
        </CharString>
        <CharString name="eth">
          72 -95 callgsubr
          138 callgsubr
          891.9799957275391 142 hstem
          -39 callsubr
          211 591.989990234375 196 vstem
          788.9900054931641 1558 rmoveto
          -42 callgsubr
          169 -98 -39 callsubr
          rlineto
          0 77 callgsubr
          -109 -63 -69 vhcurveto
          -94 -56 callgsubr
          -123 61 -76 -23 callsubr
          -43 -118.99000549316406 rcurveline
          -47 callgsubr
          -18 89.00999450683594 -55 78.99000549316406 83 callsubr
          -157 -163 rcurveline
          106 -88 150 169 128 -117 57 -108.00999450683594 29 -180 rlinecurve
          93 callsubr
          -49.99000549316406 -117 30 -89 hhcurveto
          -281 -278 -258 -452 -214 130 -247.99000549316406 275.99000549316406 386 207.02000427246094 403.97999572753906 481 272 -92.02000427246094 214 callgsubr
          121 callsubr
          197 hvcurveto
          103 -783.0200042724609 rmoveto
          31 callsubr
          -41.99000549316406 -15.009994506835938 -84 235 callsubr
          -51 rrcurveto
          -258.00999450683594 -40 -134.99000549316406 -217.99000549316406 -168.02000427246094 hhcurveto
          -145.99000549316406 -78 151.99000549316406 160 270.99000549316406 -63 callgsubr
          309 240 179 74.02000427246094 -179 -60 -3 hvcurveto
          endchar
        </CharString>
        <CharString name="exclam">
          -424 -22 68 callsubr
          hstem
          130.3300018310547 496.6600036621094 vstem
          401.97999572753906 1777.990005493164 rmoveto
          56 callgsubr
          -93.99000549316406 -1528 rmoveto
          80 callsubr
          70 hhcurveto
          87.99000549316406 -1 callsubr
          -93.99000549316406 hhcurveto
          endchar
        </CharString>
        <CharString name="exclamdbl">
          193 -22 68 callsubr
          hstem
          130.3300018310547 1113.6600036621094 vstem
          401.97999572753906 1777.990005493164 rmoveto
          56 callgsubr
          617 hmoveto
          56 callgsubr
          -710.9900054931641 -1528 rmoveto
          80 callsubr
          70 hhcurveto
          87.99000549316406 -1 callsubr
          -93.99000549316406 hhcurveto
          617 hmoveto
          80 callsubr
          69.97999572753906 hhcurveto
          88 -1 callsubr
          -93.99000549316406 hhcurveto
          endchar
        </CharString>
        <CharString name="exclamdown">
          -424 1093.979995727539 150 callsubr
          hstem
          93 496.6000061035156 vstem
          412 1093.979995727539 rmoveto
          84.99000549316406 81 64 83 11 hvcurveto
          78 10.020004272460938 -59 47 -70 hhcurveto
          -88 -77 -58 -89 -12 hvcurveto
          -68 -26 callsubr
          34 -57.02000427246094 94 hhcurveto
          -94 -1527.9700012207031 rmoveto
          156 1289.9700012207031 rlineto
          -158 hlineto
          198 callsubr
          -1289.9700012207031 rlineto
          225 hlineto
          endchar
        </CharString>
        <CharString name="f">
          -415 5 callsubr
          743.9900054931641 -577.0000152587891 122 callgsubr
          hintmask 11100000
          156 callgsubr
          hintmask 11010000
          -101 callsubr
          hintmask 11100000
          139 hlineto
          endchar
        </CharString>
        <CharString name="f_f">
          280 5 callsubr
          1439 -1272.010009765625 -89 callgsubr
          endchar
        </CharString>
        <CharString name="f_f_i">
          864 0 callsubr
          67 callsubr
          1822 -1655.010009765625 122 callgsubr
          496.52000427246094 122 callgsubr
          494.50999450683594 -64 callgsubr
          hintmask 10110000
          156 callgsubr
          hintmask 10101000
          -101 callsubr
          hintmask 10110000
          139 hlineto
          695 hmoveto
          -6 callsubr
          hintmask 10100100
          200 callsubr
          220 hlineto
          12 73 callgsubr
          84 callsubr
          78 callgsubr
          24 174 callsubr
          -50 hhcurveto
          -245 -140.99000549316406 -179.02000427246094 -268 -36 hvcurveto
          -14.009994506835938 143 callsubr
          hintmask 11000010
          721 528.0200042724609 rmoveto
          -65 -3 53 -55 65 hhcurveto
          -92 callsubr
          -28 -372 rmoveto
          -155.02000427246094 160 callgsubr
          155 -65 callsubr
          endchar
        </CharString>
        <CharString name="f_f_l">
          864 5 callsubr
          1790.990005493164 -1624.000015258789 -89 callgsubr
          762 654.0099945068359 rmoveto
          -223 -1634 rlineto
          195 hlineto
          166 callsubr
          1634 -75 callgsubr
          endchar
        </CharString>
        <CharString name="ffi_dflt">
          864 0 callsubr
          124 callsubr
          2040.990005493164 -1857.990005493164 -64 callgsubr
          318.99998474121094 122 callgsubr
          496.5 198.50999450683594 -68 callsubr
          694.9900054931641 hmoveto
          -6 callsubr
          hintmask 10100010
          22 callgsubr
          133 -40 callsubr
          rlineto
          220 hlineto
          12 156.02000427246094 rlineto
          -211 hlineto
          21.020004272460938 151 16 126 68 110 110 1 rlinecurve
          -23 callgsubr
          1 84 callsubr
          78 callgsubr
          24 -18 123 callsubr
          159 rcurveline
          22 -14 callgsubr
          -50.02000427246094 54 callgsubr
          -49.99000549316406 hhcurveto
          -245 -141 -179.02000427246094 -268 -36 hvcurveto
          -13.990005493164062 143 callsubr
          hintmask 11001000
          -1252.990005493164 528.0200042724609 rmoveto
          -65 103 callsubr
          53 -55 65 hhcurveto
          -92 callsubr
          -28 -372 -93 callgsubr
          endchar
        </CharString>
        <CharString name="fi">
          169 0 callsubr
          67 callsubr
          1126.990005493164 -960.0000152587891 122 callgsubr
          494.50999450683594 -64 callgsubr
          hintmask 10110000
          156 callgsubr
          hintmask 10101000
          -101 callsubr
          hintmask 10110000
          139 hlineto
          hintmask 11000100
          721 528.0200042724609 rmoveto
          -65 -2.9900054931640625 53 -55 65 hhcurveto
          80 -69 callsubr
          -28 -372 rmoveto
          -154.99000549316406 -1140 188 callgsubr
          155 1140 rlineto
          -195 hlineto
          endchar
        </CharString>
        <CharString name="fi_trk">
          169 0 callsubr
          124 callsubr
          1346 -1163 -64 callgsubr
          318.99998474121094 122 callgsubr
          -68 callsubr
          hintmask 11001000
          -558 528.0200042724609 rmoveto
          -65 103 callsubr
          53 -55 65 hhcurveto
          -92 callsubr
          -28 -372 -93 callgsubr
          endchar
        </CharString>
        <CharString name="five">
          6 -346 150.00999450683594 621.9700012207031 154 397.010009765625 169 hstem
          724.9900054931641 180 callsubr
          vstem
          146.97999572753906 -195.99000549316406 rmoveto
          -23 211 callgsubr
          38 callgsubr
          5 91 callgsubr
          hvcurveto
          -23 -139.99000549316406 rlineto
          -14 40 57 -3 33 hhcurveto
          439.00999450683594 342 230 323.97999572753906 216.99000549316406 -106 155 -272 -63 -99 -11 -18 -66 hvcurveto
          116 426 rlineto
          546.0200042724609 hlineto
          37.99000549316406 185 rlineto
          -168 hlineto
          -22 -16 rlineto
          -547 hlineto
          -161.02000427246094 -698 -47 callgsubr
          -75.02000427246094 rlineto
          33.02000427246094 78.99000549316406 111 -23 callsubr
          72 hhcurveto
          153.99000549316406 93 callsubr
          -86 -170 -248.97000122070312 -279 -117 -299.00999450683594 hvcurveto
          endchar
        </CharString>
        <CharString name="fl">
          169 5 callsubr
          1096 -929.010009765625 122 callgsubr
          hintmask 11100000
          156 callgsubr
          hintmask 11010000
          -101 callsubr
          hintmask 11100000
          139 hlineto
          762 654.0099945068359 rmoveto
          198 callsubr
          -1634 188 callgsubr
          223 1634 rlineto
          -195.02000427246094 hlineto
          endchar
        </CharString>
        <CharString name="florin">
          -51 998.9900054931641 31 callgsubr
          367.00999450683594 31 callgsubr
          hstemhm
          54 callsubr
          824.0099945068359 -579.0200042724609 198.97999572753906 hintmask 11100000
          413 998.9900054931641 rmoveto
          -179.02000427246094 -1354.990005493164 rlineto
          198 hlineto
          176 1354.990005493164 rlineto
          279 hlineto
          15 156 rlineto
          hintmask 11010000
          -273 hlineto
          18 133 rlineto
          204 28 -59 callgsubr
          30 106 hhcurveto
          93 36 -21 -10.020004272460938 179 callsubr
          hvcurveto
          11.020004272460938 170 rlineto
          6 -13 -53 11 -89 hhcurveto
          -164.99000549316406 -214.02000427246094 -151 -297 -40 hvcurveto
          -10 -75 -226 -54 -14 -101.99000549316406 rlineto
          hintmask 11100000
          219 hlineto
          endchar
        </CharString>
        <CharString name="four">
          154 0 139.49000549316406 hstem
          -23 callsubr
          1109.990005493164 vstem
          721.9799957275391 1256 rmoveto
          -255 -455 -205 -341.00999450683594 -242 -366 36 -93.97999572753906 rcurveline
          616 hlineto
          -49 -375 rlineto
          189 hlineto
          47 375 rlineto
          250 hlineto
          42 callsubr
          174 -251 -15.009994506835938 178 callsubr
          490 -193 -35 -58 -466 -455 -17 78.99000549316406 99 596.0099945068359 937 -142 89 rlineto
          -47 hlineto
          endchar
        </CharString>
        <CharString name="four.numr">
          84 813.9900054931641 221 callgsubr
          -72 callsubr
          1014 vstem
          1145 989 rmoveto
          -262 -11.020004272460938 36 268 -202.02000427246094 -23 -35 -252.99000549316406 -333.99000549316406 -14 78.99000549316406 92 491.00999450683594 609.0200042724609 -133 102.99000549316406 rlineto
          -48 hlineto
          -606 -851 37 -5 callgsubr
          rlineto
          491.99000549316406 hlineto
          -48 -343 rlineto
          203 hlineto
          46.02000427246094 343 rlineto
          263.99000549316406 hlineto
          76 callsubr
          175 rlineto
          endchar
        </CharString>
        <CharString name="fraction">
          -84 132 callgsubr
          140.97999572753906 840 vstem
          821.9900054931641 -3 callsubr
          26 callsubr
          endchar
        </CharString>
        <CharString name="franc">
          118 298.97999572753906 -60 callgsubr
          238.02000427246094 -60 callgsubr
          513.0099945068359 158 hstem
          35.97999572753906 1170 vstem
          -55 callsubr
          459.97999572753906 rmoveto
          -19 -161 rlineto
          221 hlineto
          -14 callsubr
          -298.97999572753906 rlineto
          205 hlineto
          37.99000549316406 298.97999572753906 rlineto
          311.00999450683594 hlineto
          179 callsubr
          161 rlineto
          -309 hlineto
          31.009994506835938 246 474.00999450683594 -16 12.990005493164062 173 -469 -7.9900054931640625 66.00999450683594 520.9900054931641 593 -8 15 162.02000427246094 rlineto
          -792 hlineto
          -135.99000549316406 -1070.020004272461 rlineto
          -223 hlineto
          endchar
        </CharString>
        <CharString name="g">
          -74 callgsubr
          hstem
          -49 callgsubr
          vstem
          954 1122 rmoveto
          18 -65 -91.02000427246094 16 -70.99000549316406 hhcurveto
          -105 callgsubr
          -530 -986.0099945068359 -92 callgsubr
        </CharString>
        <CharString name="gbreve">
          -74 callgsubr
          148 147 hstem
          -49 callgsubr
          134.99998474121094 140 vstem
          715 229 callgsubr
          rmoveto
          146 callsubr
          hvcurveto
          -53 callsubr
          -158.99000549316406 234 callsubr
          93 callgsubr
          216 vhcurveto
          239 -181.99000549316406 rmoveto
          18 -65 -91.02000427246094 16 -70.99000549316406 hhcurveto
          -105 callgsubr
          -530 -986.0099945068359 -92 callgsubr
        </CharString>
        <CharString name="gcaron">
          -74 callgsubr
          hstem
          -49 callgsubr
          vstem
          825 -45 callsubr
          -98 -133 rmoveto
          -105 callgsubr
          120 callgsubr
          -303 -1020 -92 callgsubr
        </CharString>
        <CharString name="gcircumflex">
          -74 callgsubr
          hstem
          -49 callgsubr
          vstem
          777.9900054931641 44 callgsubr
          -51 -356 rmoveto
          -105 callgsubr
          120 callgsubr
          -303 -1020 -92 callgsubr
        </CharString>
        <CharString name="gcommaaccent">
          -74 callgsubr
          hstem
          -49 callgsubr
          267.99998474121094 219 callsubr
          681.9799957275391 1236.990005493164 rmoveto
          124.00999450683594 102 callsubr
          6 54 rlineto
          -40 -43 callgsubr
          -32 54 46 vvcurveto
          76 76 callsubr
          37 48 36.99000549316406 vhcurveto
          -88 callsubr
          26 -80 50 rlineto
          134 callsubr
          -17.979995727539062 -104 -108.02000427246094 -164 vvcurveto
          -55 callgsubr
          51 -105 82 -18 vhcurveto
          150 callsubr
          -115 rmoveto
          18 -65 -91.02000427246094 16 -70.99000549316406 hhcurveto
          -105 callgsubr
          -530 -986.0099945068359 -92 callgsubr
        </CharString>
        <CharString name="gdotaccent">
          -74 callgsubr
          236 263 hstem
          -49 callgsubr
          326.99998474121094 -64 callgsubr
          vstem
          722.9799957275391 113 callgsubr
          -22 callsubr
          82 callsubr
          179 callgsubr
          -55 65 hhcurveto
          231.02000427246094 -269.97999572753906 rmoveto
          18 -65 -91.02000427246094 16 -70.99000549316406 hhcurveto
          -105 callgsubr
          -530 -986.0099945068359 -92 callgsubr
        </CharString>
        <CharString name="germandbls">
          70 -80 callsubr
          1312.000015258789 140.97999572753906 hstemhm
          655.9900054931641 187.99000549316406 34.99998474121094 206 -192 -49 callsubr
          hintmask 11001000
          54 callsubr
          930.9799957275391 rmoveto
          -117 -926.9900054931641 rlineto
          194 hlineto
          109 867 rlineto
          473.00999450683594 62 121 104 158.99000549316406 hhcurveto
          116 55 -71 -86 115 callsubr
          -55 -81 -77.99000549316406 -83 hvcurveto
          hintmask 11101000
          -61 -64.99000549316406 135 callsubr
          -56 -5 callgsubr
          vvcurveto
          -87.02000427246094 75 -112.99000549316406 59 -70 vhcurveto
          hintmask 11010000
          40 -58 37 callgsubr
          -94 -72.99000549316406 vvcurveto
          -125.00999450683594 -58 -40 -29 callsubr
          -1 vhcurveto
          -88 -1 -86 51.02000427246094 -34.02000427246094 84 callsubr
          -25.990005493164062 -187 rcurveline
          -22 43.99000549316406 120.00999450683594 -24.979995727539062 87 hhcurveto
          263 142.99000549316406 138.97000122070312 189 130 -57 callsubr
          108 -57.02000427246094 80 hvcurveto
          hintmask 11101000
          -51 71 -66 68 50.02000427246094 vvcurveto
          hintmask 11001000
          145 251 59 274 vvcurveto
          54 callsubr
          -134.97999572753906 98 -181 -215 -294.00999450683594 -58 -600 -76 vhcurveto
          endchar
        </CharString>
        <CharString name="grave">
          -569 1260.990005493164 472 hstem
          69 440.99000549316406 vstem
          69 113 callsubr
          64 -112 209 -187.99000549316406 51 callsubr
          -35 85.00999450683594 70 rcurveline
          -288.00999450683594 402 192 callgsubr
          -137 rlineto
          endchar
        </CharString>
        <CharString name="grave.cap">
          -588 222 callsubr
          57.99000549316406 399.99000549316406 vstem
          58 72 callgsubr
          62 172 callsubr
          -15 callgsubr
          -36 -47 callgsubr
          65 rcurveline
          -276 342 -123.99000549316406 -128 rlineto
          endchar
        </CharString>
        <CharString name="greater">
          258 178.99000549316406 1147.979995727539 hstem
          249.99000549316406 1024.979995727539 vstem
          1258.990005493164 688.9900054931641 rmoveto
          16 128 -890 510 100 callsubr
          162 callgsubr
          685 -388 -776 -389.02000427246094 -23.990005493164062 -193.99000549316406 1008.9900054931641 509.99000549316406 rlineto
          endchar
        </CharString>
        <CharString name="greaterequal">
          258 -42 callgsubr
          98 hstem
          140.97999572753906 1071 vstem
          1201.990005493164 688.9900054931641 rmoveto
          -1005 -443 24 194 704.9900054931641 295 -627 289.02000427246094 24 180 889 -437 -10 134 callsubr
          rlineto
          -113.00999450683594 -690.9900054931641 rmoveto
          -948 hlineto
          76 callsubr
          164 callsubr
          rlineto
          948 60 callgsubr
          -149.99000549316406 rlineto
          endchar
        </CharString>
        <CharString name="gtilde">
          -74 callgsubr
          196 -73 callgsubr
          -49 callgsubr
          hintmask 11110100
          552.9799957275391 1491.990005493164 rmoveto
          -12 callsubr
          -38 -32 69 callgsubr
          -73.99000549316406 hhcurveto
          hintmask 11101100
          -13 callsubr
          164 callgsubr
          -86 -43 hvcurveto
          87 70 callgsubr
          rlineto
          hintmask 11110100
          38 40 33 callgsubr
          rrcurveto
          174.02000427246094 -336 rmoveto
          -105 callgsubr
          120 callgsubr
          -303 -1020 -92 callgsubr
        </CharString>
        <CharString name="guillemotleft">
          768 112 callgsubr
          244.97999572753906 1428 vstem
          267 110 callgsubr
          510 356 -14 callsubr
          115 -692 -396 rlineto
          675.9900054931641 hmoveto
          -22 -160 585.9900054931641 -378 70 112 -413.99000549316406 351 510 356 214 callsubr
          115 -692 -396 rlineto
          endchar
        </CharString>
        <CharString name="guillemotright">
          768 112 callgsubr
          124 callgsubr
          1428 vstem
          948 547.9799957275391 rmoveto
          22 160 -585.9900054931641 378 -70 -112 413.99000549316406 -351 -510 236 callsubr
          38.02000427246094 177 callgsubr
          675.9900054931641 hmoveto
          120 callsubr
          160 -586.0200042724609 378 -70 -112 414 -351 -510 236 callsubr
          37.99000549316406 177 callgsubr
          endchar
        </CharString>
        <CharString name="guilsinglleft">
          80 112 callgsubr
          233.97999572753906 752 vstem
          256 110 callgsubr
          509.99000549316406 356 -14 callsubr
          115 -692 -396 rlineto
          endchar
        </CharString>
        <CharString name="guilsinglright">
          80 112 callgsubr
          174.97999572753906 752 vstem
          904.9900054931641 547.9799957275391 rmoveto
          22 160 -586 378 -70 -112 414 -351 -510.00999450683594 236 callsubr
          38 177 callgsubr
          endchar
        </CharString>
        <CharString name="h">
          88 159 callgsubr
          -4 callsubr
          52 479.00999450683594 -75 callgsubr
          -208.02000427246094 -1637.990005493164 -78 callgsubr
        </CharString>
        <CharString name="hbar">
          88 159 callgsubr
          106 52 callsubr
          -4 callsubr
          11 103.02000427246094 rlineto
          264 hlineto
          16 52 callsubr
          rlineto
          -266 hlineto
          27 246 -75 callgsubr
          -31 -246 rlineto
          -117 hlineto
          -16 -129.99000549316406 rlineto
          116 hlineto
          -160 -1262 -78 callgsubr
        </CharString>
        <CharString name="hcircumflex">
          88 159 callgsubr
          -4 callsubr
          29 150 callsubr
          46 -46.02000427246094 313 243.02000427246094 211 -234 94 68 -190 344 rlineto
          -178 hlineto
          -287.99000549316406 -303 136 callgsubr
          135 -75 callgsubr
          -208.02000427246094 -1637.990005493164 -78 callgsubr
        </CharString>
        <CharString name="hungarumlaut">
          -192 1271.990005493164 469.99000549316406 hstem
          78.99000549316406 817 vstem
          78.99000549316406 64 callsubr
          79 99 callsubr
          endchar
        </CharString>
        <CharString name="hungarumlaut.cap">
          -188 1559.979995727539 440.00999450683594 hstem
          58.97999572753906 862 vstem
          58.97999572753906 143 callgsubr
          -312.02000427246094 80 callgsubr
          endchar
        </CharString>
        <CharString name="hyphen">
          32 callsubr
        </CharString>
        <CharString name="i">
          105 callgsubr
          263 hstemhm
          306.99000549316406 -10 callgsubr
          hintmask 11000000
          307 1512 rmoveto
          -65 103 callsubr
          53 -55 65 hhcurveto
          -92 callsubr
          -28 -372 -93 callgsubr
          endchar
        </CharString>
        <CharString name="i.cy">
          105 callgsubr
          263 hstemhm
          306.99000549316406 -10 callgsubr
          hintmask 11000000
          307 1512 rmoveto
          -65 103 callsubr
          53 -55 65 hhcurveto
          -92 callsubr
          -28 -372 -93 callgsubr
          endchar
        </CharString>
        <CharString name="i.dot">
          105 callgsubr
          263 hstemhm
          306.99000549316406 -10 callgsubr
          hintmask 11000000
          307 1512 rmoveto
          -65 103 callsubr
          53 -55 65 hhcurveto
          -92 callsubr
          -28 -372 -93 callgsubr
          endchar
        </CharString>
        <CharString name="iacute">
          0 1732.990005493164 hstem
          124 callsubr
          656.9900054931641 vstem
          321.97999572753906 -16 callgsubr
          135 callsubr
          -192 -93 callgsubr
          endchar
        </CharString>
        <CharString name="ibreve">
          229 callgsubr
          147 hstem
          115 140 vstem
          115 1635.979995727539 223 callgsubr
          93 callgsubr
          216 46 callgsubr
          120 callsubr
          vhcurveto
          38 callgsubr
          11 1 11 11 vvcurveto
          -132 -60 callsubr
          27 callgsubr
          164 -495.99000549316406 -93 callgsubr
          endchar
        </CharString>
        <CharString name="icircumflex">
          0 1689.979995727539 hstem
          87 694.9799957275391 vstem
          87 1315.979995727539 rmoveto
          193 callsubr
          -76.99000549316406 313.02000427246094 273 108 callsubr
          rlineto
          192 -175.99000549316406 -93 callgsubr
          endchar
        </CharString>
        <CharString name="idieresis">
          209 callsubr
          92 187 callgsubr
          hintmask 00000000
          hintmask 11100000
          92 149 callsubr
          -65 -3 48 callgsubr
          -82 callsubr
          420 hmoveto
          -65 103 callsubr
          48 callgsubr
          -82 callsubr
          -233 -367.99000549316406 -93 callgsubr
          endchar
        </CharString>
        <CharString name="igrave">
          0 1736.990005493164 hstem
          43.99000549316406 440.99000549316406 vstem
          43.99000549316406 1600 rmoveto
          16 callsubr
          85 70 rcurveline
          12 callgsubr
          rlineto
          235 -460 -93 callgsubr
          endchar
        </CharString>
        <CharString name="ij">
          53 98 callgsubr
          306.99000549316406 -64 callgsubr
          292.00999450683594 -10 callgsubr
          hintmask 11110000
          307 1512 rmoveto
          -65 103 callsubr
          53 -55 65 hhcurveto
          -92 callsubr
          559 hmoveto
          -58 callsubr
          -587 -372 -93 callgsubr
          582 hmoveto
          -71 callsubr
        </CharString>
        <CharString name="ij_acutecomb">
          53 -514 136 hstem
          124 callsubr
          1238.990005493164 vstem
          903.9900054931641 -16 callgsubr
          -601.9900054931641 166 callgsubr
          rmoveto
          51 callsubr
          136 callsubr
          44 callsubr
          -152 138 callsubr
          192 callsubr
          -23 -175.99000549316406 -93 callgsubr
          582 hmoveto
          -71 callsubr
        </CharString>
        <CharString name="imacron">
          1398.979995727539 37 callsubr
          hstemhm
          178.97000122070312 509.52000427246094 205 callsubr
          180.97999572753906 116 callsubr
          98.02000427246094 -407.99000549316406 -93 callgsubr
          endchar
        </CharString>
        <CharString name="infinity">
          694 224.99000549316406 152 466.989990234375 164 hstem
          101 callgsubr
          198 1259.989990234375 198 vstem
          101 callgsubr
          601.9900054931641 rmoveto
          -200.99000549316406 158 -179.02000427246094 261 54 callgsubr
          vhcurveto
          179 38 callgsubr
          140 113.00999450683594 114 callsubr
          125.99000549316406 rrcurveto
          -124.99000549316406 92 108.02000427246094 -117 197 hhcurveto
          270.99000549316406 159 150 256 185 -127 196.02000427246094 -289 92 callgsubr
          hvcurveto
          -176 -94 callgsubr
          -140 -122 -91 -126.02000427246094 rrcurveto
          129 -95 -115 122 -203 hhcurveto
          -229 -191 -128 -278 hvcurveto
          729.9900054931641 -2 rmoveto
          -128 83 callgsubr
          -91 -93.99000549316406 -112 hhcurveto
          -167 -77 106.99000549316406 128 117 178 callgsubr
          114 170 129 84.99000549316406 -134 -110 76 hvcurveto
          530 198 callsubr
          rmoveto
          -143 -102.99000549316406 133 112.99000549316406 231 callsubr
          hvcurveto
          128 93 callsubr
          53 callgsubr
          92.02000427246094 114.00999450683594 hhcurveto
          157 85 -106 -124 -121 -65 -115 -133 hvcurveto
          endchar
        </CharString>
</ttFont>
